<svg xmlns="http://www.w3.org/2000/svg" width="80" height="83" fill="none"><path fill="#fff" d="M65.657 36.015H14.391a3.274 3.274 0 01-3.263-3.279v-9.823a3.275 3.275 0 013.263-3.28h51.265c1.8 0 3.262 1.472 3.262 3.28v9.824a3.273 3.273 0 01-3.26 3.278zM14.391 22.146a.775.775 0 00-.763.767v9.824c0 .422.342.765.763.765h51.265c.42 0 .762-.343.762-.765v-9.824a.774.774 0 00-.762-.767H14.391z"/><path fill="#fff" d="M58.508 69.667h-36.97c-3.464 0-6.282-2.832-6.282-6.314V34.758c0-.693.56-1.256 1.25-1.256s1.25.563 1.25 1.256v28.595c0 2.096 1.697 3.801 3.782 3.801h36.97c2.084 0 3.78-1.705 3.78-3.801V34.758c0-.693.56-1.256 1.25-1.256s1.25.563 1.25 1.256v28.595c0 3.482-2.817 6.314-6.28 6.314z"/><path fill="#fff" d="M40.023 69.667c-.69 0-1.25-.562-1.25-1.256V34.758c0-.693.56-1.256 1.25-1.256s1.25.563 1.25 1.256V68.41c0 .695-.56 1.257-1.25 1.257zM24.422 22.142c-3.913-2.131-5.373-7.064-3.255-10.998 2.117-3.931 7.024-5.4 10.938-3.272 5.964 3.247 9.184 12.305 9.317 12.689l-2.358.833c-.03-.085-3.038-8.53-8.148-11.312-2.703-1.469-6.09-.455-7.55 2.259-1.462 2.716-.454 6.12 2.248 7.591l-1.192 2.21z"/><path fill="#fff" d="M55.622 22.142l-1.19-2.21a5.564 5.564 0 002.688-3.328 5.584 5.584 0 00-.441-4.263A5.533 5.533 0 0053.37 9.64a5.508 5.508 0 00-4.24.442c-5.11 2.782-8.118 11.226-8.148 11.311l-2.358-.833c.134-.384 3.353-9.442 9.316-12.688a7.978 7.978 0 016.144-.641 8.02 8.02 0 014.794 3.913 8.092 8.092 0 01.639 6.176 8.061 8.061 0 01-3.895 4.822zm7.916 30.698H16.506c-.69 0-1.25-.562-1.25-1.255 0-.694.56-1.256 1.25-1.256h47.032c.69 0 1.25.562 1.25 1.256 0 .693-.56 1.256-1.25 1.256z"/></svg>