<svg xmlns="http://www.w3.org/2000/svg" width="168" height="37" fill="none"><path fill="#444" d="M15.688 24.5h-1.56v-5.216H7.952V24.5h-1.56V13.036h1.56v5.112h6.176v-5.112h1.56V24.5zm10.606-11.464v1.304H22.59V24.5h-1.552V14.34h-3.72v-1.304h8.976zm7.27 7.32c.074.128.138.264.191.408.059.139.115.28.168.424a6.352 6.352 0 01.368-.84l3.88-7.048c.07-.123.142-.197.216-.224a.993.993 0 01.32-.04h1.144V24.5h-1.36v-8.424a8.562 8.562 0 01.032-.752l-3.928 7.168c-.133.24-.32.36-.56.36h-.224c-.24 0-.426-.12-.56-.36L29.235 15.3c.016.139.027.275.032.408.01.133.016.256.016.368V24.5h-1.36V13.036h1.144c.139 0 .246.013.32.04.075.027.147.101.216.224l3.96 7.056zm10.63 2.84h4.96V24.5h-6.512V13.036h1.552v10.16zM63.386 24.5h-1.2a.516.516 0 01-.336-.104.64.64 0 01-.192-.264l-1.072-2.768h-5.143l-1.072 2.768a.625.625 0 01-.193.256.511.511 0 01-.335.112h-1.2l4.584-11.464h1.576L63.386 24.5zm-7.512-4.256h4.28l-1.8-4.664a8.723 8.723 0 01-.343-1.08 14.99 14.99 0 01-.337 1.088l-1.8 4.656zm14.26-2.408a.635.635 0 01-.129.136.303.303 0 01-.183.048.487.487 0 01-.264-.096 2.772 2.772 0 00-.88-.44 2.347 2.347 0 00-.752-.104 2.42 2.42 0 00-1.049.216 2.03 2.03 0 00-.767.608c-.203.267-.358.59-.465.968a4.924 4.924 0 00-.151 1.272c0 .49.055.928.168 1.312.111.379.269.699.471.96.203.256.449.453.737.592.293.133.62.2.983.2.347 0 .633-.04.857-.12.224-.085.41-.179.56-.28a4.76 4.76 0 00.368-.272.437.437 0 01.287-.128c.123 0 .214.045.273.136l.4.52a3.11 3.11 0 01-1.32.952 4.737 4.737 0 01-1.672.296c-.507 0-.98-.093-1.416-.28a3.253 3.253 0 01-1.129-.808 3.95 3.95 0 01-.76-1.312c-.18-.517-.272-1.107-.272-1.768 0-.603.083-1.16.249-1.672.17-.512.415-.952.735-1.32a3.352 3.352 0 011.2-.872c.475-.208 1.02-.312 1.633-.312.565 0 1.066.093 1.504.28.437.181.824.44 1.16.776l-.377.512zm7.892 6.664h-.632a.754.754 0 01-.336-.064c-.085-.043-.141-.133-.168-.272l-.16-.752a9.982 9.982 0 01-.624.52c-.202.15-.416.277-.64.384a3.446 3.446 0 01-.72.232c-.25.053-.53.08-.84.08-.314 0-.61-.043-.888-.128a1.935 1.935 0 01-1.2-1.064 2.409 2.409 0 01-.176-.96c0-.32.088-.627.264-.92.176-.299.459-.563.848-.792.395-.23.91-.416 1.544-.56.635-.15 1.41-.235 2.328-.256v-.632c0-.63-.136-1.104-.408-1.424-.266-.325-.664-.488-1.192-.488a2.5 2.5 0 00-.88.136c-.234.085-.44.184-.616.296-.17.107-.32.205-.448.296a.642.642 0 01-.368.128.463.463 0 01-.256-.072.64.64 0 01-.168-.192l-.256-.456c.448-.432.93-.755 1.448-.968a4.471 4.471 0 011.72-.32c.454 0 .856.075 1.208.224.352.15.648.357.888.624s.422.59.544.968c.123.379.184.795.184 1.248V24.5zm-3.696-.872c.25 0 .48-.024.688-.072a2.88 2.88 0 00.584-.216c.187-.096.363-.21.528-.344a4.36 4.36 0 00.496-.456v-1.688a11.33 11.33 0 00-1.672.16c-.458.08-.832.187-1.12.32-.288.133-.498.29-.632.472a1.03 1.03 0 00-.192.608c0 .213.035.397.104.552.07.155.163.283.28.384.118.096.256.168.416.216.16.043.334.064.52.064zm11.558.872c-.203 0-.331-.099-.384-.296l-.128-.984c-.347.421-.744.76-1.192 1.016-.443.25-.952.376-1.528.376a2.96 2.96 0 01-1.264-.264 2.659 2.659 0 01-.968-.792c-.267-.347-.472-.779-.616-1.296-.144-.517-.216-1.112-.216-1.784 0-.597.08-1.152.24-1.664.16-.517.389-.965.688-1.344a3.214 3.214 0 012.576-1.216c.496 0 .92.085 1.272.256.352.165.666.4.944.704v-4.496h1.424V24.5h-.848zm-2.76-1.04c.464 0 .869-.107 1.216-.32.352-.213.674-.515.968-.904v-3.92c-.262-.352-.55-.597-.864-.736a2.416 2.416 0 00-1.032-.216c-.758 0-1.339.27-1.744.808-.406.539-.608 1.307-.608 2.304 0 .528.045.981.136 1.36.09.373.224.683.4.928.176.24.392.416.648.528.256.112.549.168.88.168zm9.201-7.192c.486 0 .934.083 1.344.248.41.16.766.395 1.064.704.299.304.53.683.696 1.136.17.448.256.96.256 1.536 0 .224-.024.373-.072.448-.048.075-.139.112-.272.112h-5.392c.01.512.08.957.208 1.336.128.379.304.696.528.952.224.25.49.44.8.568a2.8 2.8 0 001.04.184c.358 0 .664-.04.92-.12a4.598 4.598 0 001.136-.536c.128-.085.238-.128.328-.128.118 0 .208.045.272.136l.4.52c-.176.213-.386.4-.632.56-.245.155-.51.283-.792.384a4.672 4.672 0 01-.864.224c-.298.053-.594.08-.888.08-.56 0-1.077-.093-1.552-.28a3.515 3.515 0 01-1.224-.832 3.892 3.892 0 01-.8-1.36c-.192-.539-.288-1.157-.288-1.856 0-.565.085-1.093.256-1.584a3.75 3.75 0 01.752-1.272 3.376 3.376 0 011.192-.848 3.87 3.87 0 011.584-.312zm.032 1.048c-.688 0-1.23.2-1.624.6-.394.395-.64.944-.736 1.648h4.408c0-.33-.045-.632-.136-.904a1.976 1.976 0 00-.4-.712 1.722 1.722 0 00-.648-.464 2.098 2.098 0 00-.864-.168zm5.15 7.184v-8.104h.849c.202 0 .33.099.384.296l.104.832a4.19 4.19 0 011-.904 2.383 2.383 0 011.296-.352c.549 0 .992.152 1.328.456.341.304.586.715.736 1.232a2.57 2.57 0 01.44-.76 2.624 2.624 0 011.352-.832c.261-.064.525-.096.792-.096.426 0 .805.07 1.136.208.336.133.618.33.848.592.234.261.413.584.536.968.122.379.184.813.184 1.304v5.16h-1.424v-5.16c0-.635-.139-1.115-.416-1.44-.278-.33-.68-.496-1.208-.496a1.79 1.79 0 00-.672.128c-.208.08-.392.2-.552.36-.16.16-.288.363-.384.608-.091.24-.136.52-.136.84v5.16h-1.424v-5.16c0-.65-.131-1.136-.392-1.456-.262-.32-.643-.48-1.144-.48-.352 0-.68.096-.984.288a3.172 3.172 0 00-.824.768v6.04h-1.424zm15.267 2.392a.715.715 0 01-.184.256c-.069.064-.178.096-.328.096h-1.056l1.48-3.216-3.344-7.632h1.232c.123 0 .219.032.288.096.07.059.12.125.152.2l2.168 5.104c.048.117.088.235.12.352.038.117.07.237.096.36l.112-.36c.038-.117.08-.237.128-.36l2.104-5.096a.445.445 0 01.16-.208.426.426 0 01.256-.088h1.136l-4.52 10.496z"/><g clip-path="url(#a)"><path fill="#666" d="M154.643 1.516L154.5 1.5 141 2.907v24.606l13.5 7.987 13.5-7.987V2.907l-13.357-1.391zm11.591 25l-11.734 6.94-11.734-6.942V16.43l11.685 6.916.019 1.253-8.016-4.743-.011 1.225 8.046 4.809.02 1.286-8.045-4.758-.01 1.226 8.046 4.808 8.124-4.833V18.41l3.619-2.15-.009 10.256zm0-11.564l-3.219 1.88-1.482.875-7.066-4.187-.011 1.225 6.04 3.573-.053.031-.13.076-.859.492-4.987-2.948-.011 1.225 3.936 2.328-.933.61-.021.012-2.971-1.742-.011 1.225 1.947 1.135-1.987 1.186-11.619-6.872 11.638-6.958 11.799 6.834zm0-1.225L154.44 6.81l-11.674 6.909V4.49L154.5 3.264l11.734 1.226v9.237z"/></g><defs><clipPath id="a"><path fill="#fff" d="M141 1.5h27v34h-27z"/></clipPath></defs></svg>