<svg xmlns="http://www.w3.org/2000/svg" width="190" height="38" fill="none"><g clip-path="url(#a)"><path fill="#FDC305" d="M6.012 20.935V18.65a139.135 139.135 0 0119.976-1.343c0 .606 0 1.222-.06 1.838 1.9-.86 3.896-1.477 5.943-1.838a16.767 16.767 0 00-6.767-8.285 16.248 16.248 0 00-10.306-2.398c-3.6.374-6.98 1.945-9.62 4.47A16.948 16.948 0 00.188 20.6l5.824.334zm20.966 3.546c-1.149 1.293-1.376 1.213-1.376 3.486v9.275a16.692 16.692 0 005.425-6.052A17.08 17.08 0 0033 23.237c-.013-1.051-.12-2.1-.317-3.132a32.856 32.856 0 00-5.705 4.375zM6.299 25.987s-3.754-1.455-5.14-1.85A8.33 8.33 0 000 23.856a17.066 17.066 0 002.463 8.233A16.633 16.633 0 008.598 38L6.299 25.987z"/><path fill="#F06351" d="M26.038 17.297A92.52 92.52 0 0024.65.657s-.139-1.304-.881-.243a14.583 14.583 0 00-1.189 3.981 68.295 68.295 0 00-12.647.344C9.15 2.02 7.774.758 7.11 1.01c-.664.253-.713 3.345-.713 3.345L6.071 18.6a139.094 139.094 0 0119.967-1.303z"/><path fill="#000" d="M12.29 14.145c0-.09.991.687 1.397.93.406.242.604.424.604.596s-.267.343-.623.343c-.357 0-.902-.12-.99-.272h1.217a8.34 8.34 0 01-1.604-1.597zm7.409.111l-1.08 1.344c0 .06-.168.354.179.303.41-.062.814-.16 1.208-.293.109 0 .07-.192-.109-.172-.178.02-.683.051-.99.112l.832-1.274s.069-.13-.04-.02zM16.59 20.41a2.306 2.306 0 001.079-1.01c.277-.658 0-.92-.436-1.011a2.367 2.367 0 00-1.723.343c-.387.364-.337.728-.05 1.01.348.27.727.494 1.13.668z"/><path fill="#F06351" d="M16.193 21.672a1.944 1.944 0 01-.456.607 1.693 1.693 0 01-.99.384 2.1 2.1 0 01-1.456-.435 2.289 2.289 0 01-.525-.444 1.059 1.059 0 00-.356-.263s.742 4.142 2.545 4.8c1.803.656 2.12-.759 2.179-1.143a5.758 5.758 0 00-.812-3.263c-.02-.313-.03-.111-.129-.243z"/><path fill="#000" d="M14.569 22.824a3.364 3.364 0 01-1.3-.474 3.437 3.437 0 01-1.039-1.007.145.145 0 01.076-.187.136.136 0 01.153.031 3.22 3.22 0 002.09 1.314c.328-.025.646-.13.927-.306.28-.176.516-.417.687-.704l.139-.192.099.212s.366.768.99.808c.624.04 1.04-.414 1.595-1.293a.138.138 0 01.198 0c.032.02.055.053.064.09a.154.154 0 01-.015.112c-.633 1.01-1.257 1.455-1.861 1.414a1.518 1.518 0 01-.642-.253 1.555 1.555 0 01-.468-.514 2.255 2.255 0 01-.74.67c-.294.165-.62.26-.953.28z"/><path fill="#F06351" d="M25.988 19.116a58.7 58.7 0 00-5.021 5.244 31.579 31.579 0 01-5.24 4.94c-.217-.535-1.604-1.525-1.604-1.525s-3.1-2.162-5.13-3.86a34.1 34.1 0 01-3.1-3.03l-1.98-.112c2.861 4.25 7.05 7.384 11.884 8.892.852-.142 3.238-1.88 5.021-3.294a58.146 58.146 0 005.883-5.951 6.286 6.286 0 001.13-2.021c-1.09.394-1.843.717-1.843.717z"/></g><g fill="#111" clip-path="url(#b)"><path d="M90.264 26.538A6.865 6.865 0 0189 22.231v-6.385a6.95 6.95 0 011.186-4.385c.869-1 2.212-1.461 4.188-1.461 1.976 0 3.24.461 4.03 1.308a5.422 5.422 0 011.186 3.769v1.538h-3.873v-1.769a3.691 3.691 0 00-.237-1.538 1.12 1.12 0 00-.456-.473 1.164 1.164 0 00-.65-.143c-.553 0-.948.154-1.106.539a4.846 4.846 0 00-.237 1.692v8.23a3.112 3.112 0 00.316 1.616c.158.385.553.539 1.106.539s.87-.154 1.027-.539c.18-.52.26-1.067.237-1.615v-1.846h3.873v1.538a5.775 5.775 0 01-1.186 3.846c-.79.923-2.133 1.385-4.03 1.385-1.897-.077-3.32-.539-4.11-1.539zm13.989-16.308h4.504l3.32 17.54h-3.636l-.632-3.693h-2.608l-.632 3.692h-3.715l3.399-17.538zm3.24 11.54l-.948-6.847-.949 6.846h1.897zm7.35-8.616h-2.687V10.23h9.404v2.846h-2.687v14.692h-4.03V13.154zm13.909-2.924h6.955v1.847h-4.505v5.77h3.635v1.768h-3.635v6.462h4.505v1.77h-7.034V10.23h.079zm9.009 0h1.739l5.137 11.616V10.231h2.055v17.538h-1.581l-5.216-12v12h-2.134V10.231zm11.302 0h6.954v1.847h-4.504v5.77h3.635v1.768h-3.635v6.462h4.504v1.77h-6.954V10.23zm9.009 0h3.635a6.452 6.452 0 014.031 1.078c.869.692 1.264 1.923 1.264 3.538 0 2.23-.711 3.616-2.212 4.077l2.528 8.77h-2.449l-2.371-8.232h-1.976v8.231h-2.529V10.231h.079zm3.477 7.54a3.523 3.523 0 002.292-.616c.474-.385.711-1.154.711-2.308a4.84 4.84 0 00-.237-1.692 1.975 1.975 0 00-.869-.923 3.69 3.69 0 00-1.739-.308h-1.106v5.77h.948v.076zm8.615 8.692A7.607 7.607 0 01169.057 22v-5.846a12.307 12.307 0 01.395-3.308 3.92 3.92 0 011.502-2 5.27 5.27 0 012.924-.692c1.66 0 2.845.385 3.556 1.23a5.773 5.773 0 011.107 3.847v.615h-2.371v-.538c.003-.644-.05-1.288-.158-1.923a1.533 1.533 0 00-.633-1 2.491 2.491 0 00-1.501-.385 2.417 2.417 0 00-1.581.461 1.734 1.734 0 00-.632 1.231 14.024 14.024 0 00-.158 2.077v6.539a6.816 6.816 0 00.474 2.923c.316.615.949.846 1.897.846.374.045.754-.018 1.092-.182.337-.165.617-.422.805-.741a6.922 6.922 0 00.553-3.077v-1.23h-2.292v-1.77h4.584v8.692h-1.581l-.237-2a3.143 3.143 0 01-1.226 1.658 3.287 3.287 0 01-2.014.573 4.047 4.047 0 01-1.899-.352 3.928 3.928 0 01-1.499-1.186zm13.514-4.847l-3.873-11.307h2.371l2.766 8.461 2.687-8.461H190l-3.872 11.307v6.154h-2.371v-6.154h-.079z"/></g><defs><clipPath id="a"><path fill="#fff" d="M0 0h33v38H0z"/></clipPath><clipPath id="b"><path fill="#fff" d="M89 10h101v18H89z"/></clipPath></defs></svg>