<svg xmlns="http://www.w3.org/2000/svg" width="128" height="25" fill="none"><path fill="#111" d="M1.624 22.457A9.428 9.428 0 01.02 16.738V8.262A9.559 9.559 0 011.523 2.44C2.625 1.113 4.327.5 6.831.5c2.503 0 4.106.613 5.107 1.736A7.433 7.433 0 0113.44 7.24v2.043H8.533V6.934a5.116 5.116 0 00-.3-2.043 1.46 1.46 0 00-.579-.627 1.42 1.42 0 00-.823-.19c-.701 0-1.202.205-1.402.715a6.72 6.72 0 00-.3 2.247v10.928a4.3 4.3 0 00.4 2.145c.2.51.701.714 1.402.714s1.102-.204 1.302-.715c.227-.69.33-1.417.3-2.144v-2.451h4.907v2.042a7.922 7.922 0 01-1.502 5.107C10.937 23.887 9.234 24.5 6.831 24.5c-2.403-.102-4.206-.715-5.207-2.043zM19.348.806h5.708l4.206 23.285h-4.606l-.801-4.902H20.55l-.801 4.902h-4.707L19.348.806zm4.106 15.32l-1.202-9.09-1.201 9.09h2.403zm9.313-11.439h-3.405V.807H41.28v3.778h-3.405v19.506h-5.107V4.688zM50.392.806h8.812v2.451h-5.708v7.66h4.606v2.349h-4.606v8.579h5.708v2.349H50.29V.806h.1zm11.416 0h2.203l6.509 15.422V.806h2.603v23.285h-2.002L64.51 8.16v15.93h-2.703V.806zm14.32 0h8.812v2.451h-5.708v7.66h4.606v2.349h-4.606v8.579h5.708v2.349h-8.812V.806zm11.415 0h4.607a7.896 7.896 0 015.107 1.43c1.102.92 1.602 2.553 1.602 4.698 0 2.962-.901 4.8-2.804 5.413l3.205 11.642h-3.105l-3.004-10.927h-2.503v10.927h-3.205V.806h.1zm4.407 10.009a4.313 4.313 0 002.904-.817c.6-.51.901-1.532.901-3.064a6.72 6.72 0 00-.3-2.247 2.575 2.575 0 00-1.102-1.225 4.489 4.489 0 00-2.203-.409h-1.402v7.66h1.202v.102zm10.915 11.54a10.485 10.485 0 01-1.402-5.923V8.67c-.025-1.48.144-2.957.501-4.391a5.186 5.186 0 011.902-2.656 6.44 6.44 0 013.706-.919c2.102 0 3.605.51 4.506 1.634a7.93 7.93 0 011.402 5.107v.817h-3.004v-.715c.004-.855-.063-1.71-.201-2.553a2.045 2.045 0 00-.801-1.328 3.048 3.048 0 00-1.902-.51 2.964 2.964 0 00-2.003.612 2.331 2.331 0 00-.801 1.634 19.568 19.568 0 00-.201 2.758v8.68a9.45 9.45 0 00.601 3.881c.401.817 1.202 1.124 2.404 1.124.474.06.955-.024 1.383-.242a2.44 2.44 0 001.02-.984 9.572 9.572 0 00.701-4.085V14.9h-2.904v-2.349h5.808v11.54h-2.003l-.3-2.655a4.166 4.166 0 01-1.553 2.202 4.03 4.03 0 01-2.553.76 4.927 4.927 0 01-2.406-.468 5.032 5.032 0 01-1.9-1.575zm17.124-6.434L115.082.908h3.004l3.505 11.235L124.996.908H128l-4.907 15.013v8.17h-3.004v-8.17h-.1z"/></svg>