<svg xmlns="http://www.w3.org/2000/svg" xmlns:xlink="http://www.w3.org/1999/xlink"><defs><clipPath id="a"><path fill="#fff" d="M15 0h70v97H15z"/></clipPath><clipPath id="a"><path fill="#fff" d="M7 0h36v50H7z"/></clipPath><clipPath id="a"><path fill="#fff" d="M30 0h140v194H30z"/></clipPath><clipPath id="a"><path fill="#fff" d="M0 20h134v56H0z"/></clipPath><clipPath id="a"><path fill="#fff" d="M0 11h67v28H0z"/></clipPath><clipPath id="a"><path fill="#fff" d="M0 44h268v112H0z"/></clipPath><clipPath id="a"><path fill="#fff" d="M141 1.5h27v34h-27z"/></clipPath><clipPath id="a"><path fill="#fff" d="M0 0h202v59H0z"/></clipPath><clipPath id="a"><path fill="#fff" d="M0 0h33v38H0z"/></clipPath><clipPath id="b"><path fill="#fff" d="M89 10h101v18H89z"/></clipPath><clipPath id="a"><path fill="#fff" d="M0 0h174v50H0z"/></clipPath><clipPath id="a"><path fill="#fff" d="M15 14h30v32H15z"/></clipPath><clipPath id="a"><path fill="#fff" d="M24 25h30v32H24z"/></clipPath></defs><symbol id="button-cat"><g fill="none"><path fill="#666" d="M8 0L0 9l8 9V0zm16 9l-8-9v18l8-9z"/></g></symbol><symbol id="food-black-arrow"><g fill="none"><path stroke="#000" stroke-width="2" d="M0 6h18"/><path fill="#000" d="M24 6l-6.75 5.196V.804L24 6z"/></g></symbol><symbol id="food-slimming-desktop"><g fill="none"><circle cx="50" cy="56" r="50" fill="#68B738"/><g clip-path="url(#a)"><path fill="#000" d="M69.84 0h-.38A3.5 3.5 0 0068 1.59 15.54 15.54 0 0066.71 5a1.63 1.63 0 01-1.48 1.34A7.34 7.34 0 0060 10.12a27.31 27.31 0 00-1.85 4c-1.42 3.68-2.51 7.48-3.85 11.19C53.67 27 53.64 27 51.74 27c-2.27 0-2.11-.35-2.14 2.15 0 .79.24 1.19 1.08 1.15.26 0 .65-.13.75.21.1.34-.24.49-.44.69a9 9 0 01-4.33 2.44c-1.9.51-3.84.91-5.69 1.53-4.75 1.59-9.14 3.81-12.56 7.57a28 28 0 00-4.74 7.84c-3.67 8.64-5.45 17.74-6.83 26.93-.65 4.31-1.11 8.64-1.46 13C15.2 92.65 15 94.82 15 97h33.33a2.18 2.18 0 00-.23-1.28 5 5 0 00-3.83-3.07c-.7-.16-.78-.37-.35-.92a10.348 10.348 0 001.59-3.1c1.63-4.81 2.26-9.83 3.05-14.8A30.001 30.001 0 0152 63a21.6 21.6 0 015.59-6.37c.83-.63.86-.63 1 .44.1.71.12 1.44.17 2.16.3 4.724.24 9.465-.18 14.18a61.669 61.669 0 00-.15 11A75.16 75.16 0 0060.7 97H74a5.41 5.41 0 00-4.24-4.44 9 9 0 00-3.76.2c-.6.14-.85 0-.9-.65a56.351 56.351 0 011-15.82 177.734 177.734 0 003.06-18.18 17.75 17.75 0 012.28-7c1.19-2.12 2.23-4.32 3.4-6.45a5.871 5.871 0 00.42-5.19c-.27-.71-.53-1.43-.86-2.11-1-1.95-2-3.88-2.92-5.85-.49-1-.38-1.12.71-1.15 1.63 0 1.63 0 1.66-1.64v-.66c0-.69-.26-1.07-1-1h-1.52c-.69 0-.89-.29-.72-1a6.24 6.24 0 015.13-4.43 22 22 0 016.62.43 1 1 0 001.25-.64c.4-1 .84-2 1.29-3a1 1 0 00-.1-1.14C81.6 13.22 78.13 9.43 73.4 7a1.49 1.49 0 01-.88-1.12 19.599 19.599 0 00-1.27-4.16A3.5 3.5 0 0069.84 0z"/></g></g></symbol><symbol id="food-slimming-mobile"><g fill="none"><circle cx="25" cy="28" r="25" fill="#68B738"/><g clip-path="url(#a)"><path fill="#000" d="M35.203 0h-.195c-.33.187-.593.474-.75.82a8.028 8.028 0 00-.664 1.757.84.84 0 01-.761.691 3.77 3.77 0 00-2.69 1.948c-.372.661-.69 1.35-.952 2.062-.73 1.897-1.29 3.856-1.98 5.768-.324.872-.339.872-1.316.872-1.168 0-1.085-.18-1.1 1.108 0 .407.123.613.555.593.133 0 .334-.067.385.108.052.175-.123.252-.226.355a4.626 4.626 0 01-2.227 1.258c-.977.263-1.975.47-2.926.789-2.443.82-4.7 1.964-6.46 3.902a14.436 14.436 0 00-2.437 4.041c-1.888 4.454-2.803 9.145-3.513 13.882a97.062 97.062 0 00-.75 6.7C7.102 47.759 7 48.877 7 50h17.141a1.126 1.126 0 00-.118-.66 2.577 2.577 0 00-1.97-1.582c-.36-.083-.401-.191-.18-.475.36-.482.637-1.022.818-1.597.838-2.48 1.162-5.067 1.568-7.63.23-1.956.83-3.85 1.77-5.582a11.126 11.126 0 012.874-3.283c.427-.325.443-.325.515.227.051.366.061.742.087 1.113a48.166 48.166 0 01-.092 7.31 31.866 31.866 0 00-.078 5.67A38.826 38.826 0 0030.503 50h6.84a2.79 2.79 0 00-2.18-2.289 4.62 4.62 0 00-1.934.103c-.309.073-.438 0-.463-.335a29.113 29.113 0 01.514-8.154 91.803 91.803 0 001.574-9.371 9.163 9.163 0 011.172-3.609c.612-1.092 1.147-2.226 1.749-3.324a3.031 3.031 0 00.216-2.676c-.139-.366-.273-.737-.442-1.087-.515-1.005-1.029-2-1.502-3.016-.252-.515-.196-.577.365-.593.838 0 .838 0 .854-.845v-.34c0-.356-.134-.552-.515-.516h-.781c-.355 0-.458-.149-.37-.515a3.217 3.217 0 012.638-2.284 11.291 11.291 0 013.404.222.513.513 0 00.643-.33c.206-.515.432-1.03.664-1.546a.517.517 0 00-.052-.588c-1.646-2.093-3.43-4.046-5.863-5.299a.767.767 0 01-.452-.577 10.123 10.123 0 00-.653-2.144A1.803 1.803 0 0035.203 0z"/></g></g></symbol><symbol id="food-slimming-tablet"><g fill="none"><circle cx="100" cy="111" r="100" fill="#68B738"/><g clip-path="url(#a)"><path fill="#000" d="M139.68 0h-.76A7 7 0 00136 3.18a31.04 31.04 0 00-2.58 6.82 3.257 3.257 0 01-2.96 2.68A14.675 14.675 0 00120 20.24a54.62 54.62 0 00-3.7 8c-2.84 7.36-5.02 14.96-7.7 22.38-1.26 3.38-1.32 3.38-5.12 3.38-4.54 0-4.22-.7-4.28 4.3 0 1.58.48 2.38 2.16 2.3.52 0 1.3-.26 1.5.42.2.68-.48.98-.88 1.38a18 18 0 01-8.66 4.88c-3.8 1.02-7.68 1.82-11.38 3.06-9.5 3.18-18.28 7.62-25.12 15.14a56 56 0 00-9.48 15.68c-7.34 17.28-10.9 35.48-13.66 53.86-1.3 8.62-2.22 17.28-2.92 26-.36 4.28-.76 8.62-.76 12.98h66.66c.11-.88-.05-1.773-.46-2.56a10.002 10.002 0 00-7.66-6.14c-1.4-.32-1.56-.74-.7-1.84a20.692 20.692 0 003.18-6.2c3.26-9.62 4.52-19.66 6.1-29.6A60.008 60.008 0 01104 126a43.215 43.215 0 0111.18-12.74c1.66-1.26 1.72-1.26 2 .88.2 1.42.24 2.88.34 4.32.6 9.449.48 18.93-.36 28.36a123.318 123.318 0 00-.3 22A150.344 150.344 0 00121.4 194H148a10.817 10.817 0 00-8.48-8.88 18.007 18.007 0 00-7.52.4c-1.2.28-1.7 0-1.8-1.3a112.726 112.726 0 012-31.64 355.46 355.46 0 006.12-36.36 35.499 35.499 0 014.56-14c2.38-4.24 4.46-8.64 6.8-12.9a11.745 11.745 0 00.84-10.38c-.54-1.42-1.06-2.86-1.72-4.22-2-3.9-4-7.76-5.84-11.7-.98-2-.76-2.24 1.42-2.3 3.26 0 3.26 0 3.32-3.28v-1.32c0-1.38-.52-2.14-2-2h-3.04c-1.38 0-1.78-.58-1.44-2a12.483 12.483 0 0110.26-8.86 43.999 43.999 0 0113.24.86 1.999 1.999 0 002.5-1.28c.8-2 1.68-4 2.58-6a1.997 1.997 0 00-.2-2.28c-6.4-8.12-13.34-15.7-22.8-20.56a2.977 2.977 0 01-1.76-2.24 39.163 39.163 0 00-2.54-8.32A7 7 0 00139.68 0z"/></g></g></symbol><symbol id="food-weight-desktop"><g fill="none"><circle cx="69" cy="50" r="50" fill="#68B738"/><g clip-path="url(#a)"><path fill="#000" d="M123.118 25.757a15.206 15.206 0 014.5-4.6c1-.7 1.6-.7 2.2.6.8 1.9 1.5 3.9.9 6a2.288 2.288 0 00.4 2.1c.6.8 1.1 1.6 1.6 2.3a6.266 6.266 0 01.9 6.2 5.437 5.437 0 00-.2 3.1c.2.99.2 2.01 0 3a3.752 3.752 0 01-2.7 3.2 5.212 5.212 0 00-3.2 2 1.05 1.05 0 01-.9.5c-1.2.2-4.2-2.5-4.2-3.7v-.6c.1-3.6-.1-3.9-3.4-5.4a4.399 4.399 0 01-1.8-1.2c-.6-.8-1.4-.7-2.3-.4-.9.3-1.4.9-1.3 1.9.302 2.42.402 4.862.3 7.3.007.278.075.551.2.8 3.1 4.5 4.3 9.8 5.8 14.9 1.2 3.9 3.4 6 7.4 6.3.64.05 1.276.151 1.9.3a4.164 4.164 0 013.4 3.2c.7 2.1.3 2.6-1.8 2.6h-6.5a3.242 3.242 0 01-2.3-.8 11.71 11.71 0 00-3.4-2 7.263 7.263 0 01-3.4-2.6 28.581 28.581 0 00-4-4.5c-2.8-2.9-5.8-5.7-8.4-8.7a11.382 11.382 0 01-3.2-7.6c0-.9-.2-1.3-1.2-.9-.3.19-.645.294-1 .3-2.8 0-4.2 1.7-5.2 4.2-.9 2.1-2.1 4.1-3.2 6.2a10.39 10.39 0 00-1 4.2c0 2.4.6 3.2 2.8 4 1.4.5 2.7 1 3.4 2.4.8 1.6.6 2-1.1 2.1h-6.8a1.88 1.88 0 01-1.9-1.1l-1.8-3a6.049 6.049 0 01-.7-5.4 11.86 11.86 0 00.1-5.3 8.42 8.42 0 011.7-7c.6-.7.6-1-.4-1.2a50.068 50.068 0 01-11.8-4.1.1.1 0 01-.1-.1c-3.2-1.2-3.8-1-4.7 2.3-.8 2.8-1.6 5.6-2.2 8.5-.7 3.2.1 6.2 1.1 9.2.4 1.2 1.6 1.1 2.5 1.4 2 .6 3.7 1.4 4.5 3.5.7 1.6.6 1.8-1.1 1.8-1.7 0-3.4-.1-5.2 0a6.641 6.641 0 01-4.2-1.4c-4.8-3.2-6.2-8.1-6.6-13.4-.2-3.3-2-5.9-4.1-8.4-.4-.5-.8-.7-1.4-.3a44.322 44.322 0 01-6.7 3 26.71 26.71 0 00-12.2 8.8 10.63 10.63 0 00-2.2 5.1c-.3 1.8.2 2.6 2 3.1s2.7 1.5 2.9 3.4c.1.8-.2 1.2-1 1.2h-8.1a1.65 1.65 0 01-1.3-.8 8.56 8.56 0 01-1.9-5.5c-.052-3.455.25-6.907.9-10.3a6.3 6.3 0 013.4-4.8c5.9-2.8 9-8.1 11.8-13.6.6-1.1.1-1.3-.9-1.2a16.47 16.47 0 00-7.7 3.2 70.622 70.622 0 00-8.3 7.1 16.67 16.67 0 01-10.3 4.9c-7.3.4-10.7-3.7-10.4-10.3a9.69 9.69 0 012.4-6.1 4.25 4.25 0 014.5-1.5c1.5.4 1.9 1.2 1.3 2.7-.3.6-.7 1.1-1 1.7a7.499 7.499 0 00-1 2c-1.1 3 .4 5.1 3.5 5.4 3.3.3 6-1.1 8.5-3.1a44.94 44.94 0 008-8.3 20.79 20.79 0 0114.4-8.1c2.3-.3 4.3-1.3 6.5-1.9a41.508 41.508 0 0112.7-1.8 13.002 13.002 0 005.8-1.1c4.9-2 10-2 15.1-1 4 .8 8 1.8 11.9 2.8 2.321.432 4.708.364 7-.2a67.788 67.788 0 0113.4-2c2.963-.144 5.915.44 8.6 1.7 2 .9 2 .9 1.5 2.8z"/></g></g></symbol><symbol id="food-weight-mobile"><g fill="none"><circle cx="33" cy="25" r="25" fill="#68B738"/><g clip-path="url(#a)"><path fill="#000" d="M60.56 13.878a7.602 7.602 0 012.25-2.3c.5-.35.8-.35 1.1.3.4.95.75 1.95.45 3a1.144 1.144 0 00.2 1.05c.3.4.55.8.8 1.15a3.135 3.135 0 01.45 3.1 2.716 2.716 0 00-.1 1.55 3.825 3.825 0 010 1.5 1.875 1.875 0 01-1.35 1.6 2.606 2.606 0 00-1.6 1 .525.525 0 01-.45.25c-.6.1-2.1-1.25-2.1-1.85v-.3c.05-1.8-.05-1.95-1.7-2.7a2.195 2.195 0 01-.9-.6c-.3-.4-.7-.35-1.15-.2-.45.15-.7.45-.65.95.15 1.21.2 2.432.15 3.65a.94.94 0 00.1.4c1.55 2.25 2.15 4.9 2.9 7.45.6 1.95 1.7 3 3.7 3.15.32.026.637.076.95.15a2.08 2.08 0 011.7 1.6c.35 1.05.15 1.3-.9 1.3h-3.25a1.62 1.62 0 01-1.15-.4 5.856 5.856 0 00-1.7-1 3.63 3.63 0 01-1.7-1.3 14.307 14.307 0 00-2-2.25c-1.4-1.45-2.9-2.85-4.2-4.35a5.69 5.69 0 01-1.6-3.8c0-.45-.1-.65-.6-.45a.965.965 0 01-.5.15c-1.4 0-2.1.85-2.6 2.1-.45 1.05-1.05 2.05-1.6 3.1a5.195 5.195 0 00-.5 2.1c0 1.2.3 1.6 1.4 2 .7.25 1.35.5 1.7 1.2.4.8.3 1-.55 1.05h-3.4a.94.94 0 01-.95-.55l-.9-1.5a3.025 3.025 0 01-.35-2.7 5.93 5.93 0 00.05-2.65 4.21 4.21 0 01.85-3.5c.3-.35.3-.5-.2-.6a25.03 25.03 0 01-5.9-2.05.05.05 0 01-.05-.05c-1.6-.6-1.9-.5-2.35 1.15-.4 1.4-.8 2.8-1.1 4.25-.35 1.6.05 3.1.55 4.6.2.6.8.55 1.25.7 1 .3 1.85.7 2.25 1.75.35.8.3.9-.55.9-.85 0-1.7-.05-2.6 0a3.32 3.32 0 01-2.1-.7c-2.4-1.6-3.1-4.05-3.3-6.7-.1-1.65-1-2.95-2.05-4.2-.2-.25-.4-.35-.7-.15a22.156 22.156 0 01-3.35 1.5 13.355 13.355 0 00-6.1 4.4 5.315 5.315 0 00-1.1 2.55c-.15.9.1 1.3 1 1.55s1.35.75 1.45 1.7c.05.4-.1.6-.5.6h-4.05a.824.824 0 01-.65-.4 4.28 4.28 0 01-.95-2.75 25.301 25.301 0 01.45-5.15 3.152 3.152 0 011.7-2.4c2.95-1.4 4.5-4.05 5.9-6.8.3-.55.05-.65-.45-.6a8.236 8.236 0 00-3.85 1.6 35.315 35.315 0 00-4.15 3.55 8.335 8.335 0 01-5.15 2.45c-3.65.2-5.35-1.85-5.2-5.15a4.845 4.845 0 011.2-3.05 2.125 2.125 0 012.25-.75c.75.2.95.6.65 1.35-.15.3-.35.55-.5.85a3.751 3.751 0 00-.5 1c-.55 1.5.2 2.55 1.75 2.7 1.65.15 3-.55 4.25-1.55a22.467 22.467 0 004-4.15 10.396 10.396 0 017.2-4.05c1.15-.15 2.15-.65 3.25-.95a20.779 20.779 0 016.35-.9 6.5 6.5 0 002.9-.55c2.45-1 5-1 7.55-.5 2 .4 4 .9 5.95 1.4a8.288 8.288 0 003.5-.1 33.9 33.9 0 016.7-1 9.081 9.081 0 014.3.85c1 .45 1 .45.75 1.4z"/></g></g></symbol><symbol id="food-weight-tablet"><g fill="none"><circle cx="134" cy="100" r="100" fill="#68B738"/><g clip-path="url(#a)"><path fill="#000" d="M246.236 55.514a30.402 30.402 0 019-9.2c2-1.4 3.2-1.4 4.4 1.2 1.6 3.8 3 7.8 1.8 12a4.59 4.59 0 00.8 4.2c1.2 1.6 2.2 3.2 3.2 4.6a12.541 12.541 0 011.8 12.4 10.865 10.865 0 00-.4 6.2c.4 1.98.4 4.02 0 6a7.494 7.494 0 01-5.4 6.4 10.419 10.419 0 00-6.4 4c-.188.307-.453.56-.769.735-.315.176-.67.267-1.031.265-2.4.4-8.4-5-8.4-7.4v-1.2c.2-7.2-.2-7.8-6.8-10.8a8.783 8.783 0 01-3.6-2.4c-1.2-1.6-2.8-1.4-4.6-.8-1.8.6-2.8 1.8-2.6 3.8a88.16 88.16 0 01.6 14.6c.014.556.15 1.103.4 1.6 6.2 9 8.6 19.6 11.6 29.8 2.4 7.8 6.8 12 14.8 12.6 1.281.102 2.551.302 3.8.6a8.318 8.318 0 016.8 6.4c1.4 4.2.6 5.2-3.6 5.2h-13a6.481 6.481 0 01-4.6-1.6 23.39 23.39 0 00-6.8-4 14.53 14.53 0 01-6.8-5.2 57.163 57.163 0 00-8-9c-5.6-5.8-11.6-11.4-16.8-17.4a22.77 22.77 0 01-6.4-15.2c0-1.8-.4-2.6-2.4-1.8a3.86 3.86 0 01-2 .6c-5.6 0-8.4 3.4-10.4 8.4-1.8 4.2-4.2 8.2-6.4 12.4a20.802 20.802 0 00-2 8.4c0 4.8 1.2 6.4 5.6 8 2.8 1 5.4 2 6.8 4.8 1.6 3.2 1.2 4-2.2 4.2h-13.6a3.762 3.762 0 01-3.8-2.2l-3.6-6a12.101 12.101 0 01-1.4-10.8c.866-3.473.934-7.097.2-10.6a16.842 16.842 0 013.4-14c1.2-1.4 1.2-2-.8-2.4a100.166 100.166 0 01-23.6-8.2.2.2 0 01-.2-.2c-6.4-2.4-7.6-2-9.4 4.6-1.6 5.6-3.2 11.2-4.4 17-1.4 6.4.2 12.4 2.2 18.4.8 2.4 3.2 2.2 5 2.8 4 1.2 7.4 2.8 9 7 1.4 3.2 1.2 3.6-2.2 3.6-3.4 0-6.8-.2-10.4 0a13.288 13.288 0 01-8.4-2.8c-9.6-6.4-12.4-16.2-13.2-26.8-.4-6.6-4-11.8-8.2-16.8-.8-1-1.6-1.4-2.8-.6a88.625 88.625 0 01-13.4 6 53.42 53.42 0 00-24.4 17.6 21.259 21.259 0 00-4.4 10.2c-.6 3.6.4 5.2 4 6.2s5.4 3 5.8 6.8c.2 1.6-.4 2.4-2 2.4h-16.2a3.301 3.301 0 01-2.6-1.6 17.121 17.121 0 01-3.8-11 101.19 101.19 0 011.8-20.6 12.6 12.6 0 016.8-9.6c11.8-5.6 18-16.2 23.6-27.2 1.2-2.2.2-2.6-1.8-2.4a32.94 32.94 0 00-15.4 6.4 141.23 141.23 0 00-16.6 14.2 33.342 33.342 0 01-20.6 9.8c-14.6.8-21.4-7.4-20.8-20.6a19.38 19.38 0 014.8-12.2 8.5 8.5 0 019-3c3 .8 3.8 2.4 2.6 5.4-.6 1.2-1.4 2.2-2 3.4a14.998 14.998 0 00-2 4c-2.2 6 .8 10.2 7 10.8 6.6.6 12-2.2 17-6.2a89.88 89.88 0 0016-16.6 41.579 41.579 0 0128.8-16.2c4.6-.6 8.6-2.6 13-3.8a83.014 83.014 0 0125.4-3.6 25.996 25.996 0 0011.6-2.2c9.8-4 20-4 30.2-2 8 1.6 16 3.6 23.8 5.6 4.642.865 9.415.728 14-.4a135.599 135.599 0 0126.8-4 36.318 36.318 0 0117.2 3.4c4 1.8 4 1.8 3 5.6z"/></g></g></symbol><symbol id="gift"><g fill="none"><path fill="#fff" d="M65.657 36.015H14.391a3.274 3.274 0 01-3.263-3.279v-9.823a3.275 3.275 0 013.263-3.28h51.265c1.8 0 3.262 1.472 3.262 3.28v9.824a3.273 3.273 0 01-3.26 3.278zM14.391 22.146a.775.775 0 00-.763.767v9.824c0 .422.342.765.763.765h51.265c.42 0 .762-.343.762-.765v-9.824a.774.774 0 00-.762-.767H14.391z"/><path fill="#fff" d="M58.508 69.667h-36.97c-3.464 0-6.282-2.832-6.282-6.314V34.758c0-.693.56-1.256 1.25-1.256s1.25.563 1.25 1.256v28.595c0 2.096 1.697 3.801 3.782 3.801h36.97c2.084 0 3.78-1.705 3.78-3.801V34.758c0-.693.56-1.256 1.25-1.256s1.25.563 1.25 1.256v28.595c0 3.482-2.817 6.314-6.28 6.314z"/><path fill="#fff" d="M40.023 69.667c-.69 0-1.25-.562-1.25-1.256V34.758c0-.693.56-1.256 1.25-1.256s1.25.563 1.25 1.256V68.41c0 .695-.56 1.257-1.25 1.257zM24.422 22.142c-3.913-2.131-5.373-7.064-3.255-10.998 2.117-3.931 7.024-5.4 10.938-3.272 5.964 3.247 9.184 12.305 9.317 12.689l-2.358.833c-.03-.085-3.038-8.53-8.148-11.312-2.703-1.469-6.09-.455-7.55 2.259-1.462 2.716-.454 6.12 2.248 7.591l-1.192 2.21z"/><path fill="#fff" d="M55.622 22.142l-1.19-2.21a5.564 5.564 0 002.688-3.328 5.584 5.584 0 00-.441-4.263A5.533 5.533 0 0053.37 9.64a5.508 5.508 0 00-4.24.442c-5.11 2.782-8.118 11.226-8.148 11.311l-2.358-.833c.134-.384 3.353-9.442 9.316-12.688a7.978 7.978 0 016.144-.641 8.02 8.02 0 014.794 3.913 8.092 8.092 0 01.639 6.176 8.061 8.061 0 01-3.895 4.822zm7.916 30.698H16.506c-.69 0-1.25-.562-1.25-1.255 0-.694.56-1.256 1.25-1.256h47.032c.69 0 1.25.562 1.25 1.256 0 .693-.56 1.256-1.25 1.256z"/></g></symbol><symbol id="header-toogle"><g fill="none"><path stroke="#000" stroke-width="2" d="M0 3h24M0 11h24M0 19h24"/></g></symbol><symbol id="html-academy"><g fill="none"><path fill="#444" d="M15.688 24.5h-1.56v-5.216H7.952V24.5h-1.56V13.036h1.56v5.112h6.176v-5.112h1.56V24.5zm10.606-11.464v1.304H22.59V24.5h-1.552V14.34h-3.72v-1.304h8.976zm7.27 7.32c.074.128.138.264.191.408.059.139.115.28.168.424a6.352 6.352 0 01.368-.84l3.88-7.048c.07-.123.142-.197.216-.224a.993.993 0 01.32-.04h1.144V24.5h-1.36v-8.424a8.562 8.562 0 01.032-.752l-3.928 7.168c-.133.24-.32.36-.56.36h-.224c-.24 0-.426-.12-.56-.36L29.235 15.3c.016.139.027.275.032.408.01.133.016.256.016.368V24.5h-1.36V13.036h1.144c.139 0 .246.013.32.04.075.027.147.101.216.224l3.96 7.056zm10.63 2.84h4.96V24.5h-6.512V13.036h1.552v10.16zM63.386 24.5h-1.2a.516.516 0 01-.336-.104.64.64 0 01-.192-.264l-1.072-2.768h-5.143l-1.072 2.768a.625.625 0 01-.193.256.511.511 0 01-.335.112h-1.2l4.584-11.464h1.576L63.386 24.5zm-7.512-4.256h4.28l-1.8-4.664a8.723 8.723 0 01-.343-1.08 14.99 14.99 0 01-.337 1.088l-1.8 4.656zm14.26-2.408a.635.635 0 01-.129.136.303.303 0 01-.183.048.487.487 0 01-.264-.096 2.772 2.772 0 00-.88-.44 2.347 2.347 0 00-.752-.104 2.42 2.42 0 00-1.049.216 2.03 2.03 0 00-.767.608c-.203.267-.358.59-.465.968a4.924 4.924 0 00-.151 1.272c0 .49.055.928.168 1.312.111.379.269.699.471.96.203.256.449.453.737.592.293.133.62.2.983.2.347 0 .633-.04.857-.12.224-.085.41-.179.56-.28a4.76 4.76 0 00.368-.272.437.437 0 01.287-.128c.123 0 .214.045.273.136l.4.52a3.11 3.11 0 01-1.32.952 4.737 4.737 0 01-1.672.296c-.507 0-.98-.093-1.416-.28a3.253 3.253 0 01-1.129-.808 3.95 3.95 0 01-.76-1.312c-.18-.517-.272-1.107-.272-1.768 0-.603.083-1.16.249-1.672.17-.512.415-.952.735-1.32a3.352 3.352 0 011.2-.872c.475-.208 1.02-.312 1.633-.312.565 0 1.066.093 1.504.28.437.181.824.44 1.16.776l-.377.512zm7.892 6.664h-.632a.754.754 0 01-.336-.064c-.085-.043-.141-.133-.168-.272l-.16-.752a9.982 9.982 0 01-.624.52c-.202.15-.416.277-.64.384a3.446 3.446 0 01-.72.232c-.25.053-.53.08-.84.08-.314 0-.61-.043-.888-.128a1.935 1.935 0 01-1.2-1.064 2.409 2.409 0 01-.176-.96c0-.32.088-.627.264-.92.176-.299.459-.563.848-.792.395-.23.91-.416 1.544-.56.635-.15 1.41-.235 2.328-.256v-.632c0-.63-.136-1.104-.408-1.424-.266-.325-.664-.488-1.192-.488a2.5 2.5 0 00-.88.136c-.234.085-.44.184-.616.296-.17.107-.32.205-.448.296a.642.642 0 01-.368.128.463.463 0 01-.256-.072.64.64 0 01-.168-.192l-.256-.456c.448-.432.93-.755 1.448-.968a4.471 4.471 0 011.72-.32c.454 0 .856.075 1.208.224.352.15.648.357.888.624s.422.59.544.968c.123.379.184.795.184 1.248V24.5zm-3.696-.872c.25 0 .48-.024.688-.072a2.88 2.88 0 00.584-.216c.187-.096.363-.21.528-.344a4.36 4.36 0 00.496-.456v-1.688a11.33 11.33 0 00-1.672.16c-.458.08-.832.187-1.12.32-.288.133-.498.29-.632.472a1.03 1.03 0 00-.192.608c0 .213.035.397.104.552.07.155.163.283.28.384.118.096.256.168.416.216.16.043.334.064.52.064zm11.558.872c-.203 0-.331-.099-.384-.296l-.128-.984c-.347.421-.744.76-1.192 1.016-.443.25-.952.376-1.528.376a2.96 2.96 0 01-1.264-.264 2.659 2.659 0 01-.968-.792c-.267-.347-.472-.779-.616-1.296-.144-.517-.216-1.112-.216-1.784 0-.597.08-1.152.24-1.664.16-.517.389-.965.688-1.344a3.214 3.214 0 012.576-1.216c.496 0 .92.085 1.272.256.352.165.666.4.944.704v-4.496h1.424V24.5h-.848zm-2.76-1.04c.464 0 .869-.107 1.216-.32.352-.213.674-.515.968-.904v-3.92c-.262-.352-.55-.597-.864-.736a2.416 2.416 0 00-1.032-.216c-.758 0-1.339.27-1.744.808-.406.539-.608 1.307-.608 2.304 0 .528.045.981.136 1.36.09.373.224.683.4.928.176.24.392.416.648.528.256.112.549.168.88.168zm9.201-7.192c.486 0 .934.083 1.344.248.41.16.766.395 1.064.704.299.304.53.683.696 1.136.17.448.256.96.256 1.536 0 .224-.024.373-.072.448-.048.075-.139.112-.272.112h-5.392c.01.512.08.957.208 1.336.128.379.304.696.528.952.224.25.49.44.8.568a2.8 2.8 0 001.04.184c.358 0 .664-.04.92-.12a4.598 4.598 0 001.136-.536c.128-.085.238-.128.328-.128.118 0 .208.045.272.136l.4.52c-.176.213-.386.4-.632.56-.245.155-.51.283-.792.384a4.672 4.672 0 01-.864.224c-.298.053-.594.08-.888.08-.56 0-1.077-.093-1.552-.28a3.515 3.515 0 01-1.224-.832 3.892 3.892 0 01-.8-1.36c-.192-.539-.288-1.157-.288-1.856 0-.565.085-1.093.256-1.584a3.75 3.75 0 01.752-1.272 3.376 3.376 0 011.192-.848 3.87 3.87 0 011.584-.312zm.032 1.048c-.688 0-1.23.2-1.624.6-.394.395-.64.944-.736 1.648h4.408c0-.33-.045-.632-.136-.904a1.976 1.976 0 00-.4-.712 1.722 1.722 0 00-.648-.464 2.098 2.098 0 00-.864-.168zm5.15 7.184v-8.104h.849c.202 0 .33.099.384.296l.104.832a4.19 4.19 0 011-.904 2.383 2.383 0 011.296-.352c.549 0 .992.152 1.328.456.341.304.586.715.736 1.232a2.57 2.57 0 01.44-.76 2.624 2.624 0 011.352-.832c.261-.064.525-.096.792-.096.426 0 .805.07 1.136.208.336.133.618.33.848.592.234.261.413.584.536.968.122.379.184.813.184 1.304v5.16h-1.424v-5.16c0-.635-.139-1.115-.416-1.44-.278-.33-.68-.496-1.208-.496a1.79 1.79 0 00-.672.128c-.208.08-.392.2-.552.36-.16.16-.288.363-.384.608-.091.24-.136.52-.136.84v5.16h-1.424v-5.16c0-.65-.131-1.136-.392-1.456-.262-.32-.643-.48-1.144-.48-.352 0-.68.096-.984.288a3.172 3.172 0 00-.824.768v6.04h-1.424zm15.267 2.392a.715.715 0 01-.184.256c-.069.064-.178.096-.328.096h-1.056l1.48-3.216-3.344-7.632h1.232c.123 0 .219.032.288.096.07.059.12.125.152.2l2.168 5.104c.048.117.088.235.12.352.038.117.07.237.096.36l.112-.36c.038-.117.08-.237.128-.36l2.104-5.096a.445.445 0 01.16-.208.426.426 0 01.256-.088h1.136l-4.52 10.496z"/><g clip-path="url(#a)"><path fill="#666" d="M154.643 1.516L154.5 1.5 141 2.907v24.606l13.5 7.987 13.5-7.987V2.907l-13.357-1.391zm11.591 25l-11.734 6.94-11.734-6.942V16.43l11.685 6.916.019 1.253-8.016-4.743-.011 1.225 8.046 4.809.02 1.286-8.045-4.758-.01 1.226 8.046 4.808 8.124-4.833V18.41l3.619-2.15-.009 10.256zm0-11.564l-3.219 1.88-1.482.875-7.066-4.187-.011 1.225 6.04 3.573-.053.031-.13.076-.859.492-4.987-2.948-.011 1.225 3.936 2.328-.933.61-.021.012-2.971-1.742-.011 1.225 1.947 1.135-1.987 1.186-11.619-6.872 11.638-6.958 11.799 6.834zm0-1.225L154.44 6.81l-11.674 6.909V4.49L154.5 3.264l11.734 1.226v9.237z"/></g></g></symbol><symbol id="logo-desktop"><g fill="none"><g clip-path="url(#a)"><path fill="#FDC305" d="M59.743 23.806A25.423 25.423 0 0051.71 13.43a25.632 25.632 0 00-12.165-5.02 25.688 25.688 0 00-13.062 1.671 25.536 25.536 0 00-10.491 7.916 25.327 25.327 0 00-5.132 12.06 25.267 25.267 0 001.59 12.997 25.417 25.417 0 007.892 10.484 25.629 25.629 0 0012.094 5.184 113.224 113.224 0 01-1.686-6.794 32.342 32.342 0 004.749 2.529s.12 2.142.28 4.533c1.783.03 3.566-.126 5.317-.466a2.108 2.108 0 010-.754c.29-1.855 1.088-5.198 1.247-7.35a15.108 15.108 0 002.894-3.68l-.06.436c-.549 4.226-1.696 8.74-2.395 9.989a5.534 5.534 0 01-.828 1.14 25.646 25.646 0 009.918-4.727 25.467 25.467 0 007.004-8.43 25.303 25.303 0 00.867-21.341zm-1.466 3.76c-.44.426-1.347.714-1.497-.576-.15-1.29-.19-2.192-.19-2.192s-1.925-3.402-2.643-3.442c-.719-.04-5.817 3.442-7.164 4.96-1.167 1.28-1.397 1.19-1.397 3.442 0 1.696.22 8.104.1 13.004l-8.131 2.153a64.17 64.17 0 01-7.783 1.706l-.997-5.783h-.14l-2.564-13.064s-3.801-1.428-5.198-1.815a3.772 3.772 0 00-3.991.625 5.005 5.005 0 00-1.726 3.819c.21.46.371.943.479 1.438.05.476-1.197.426-1.996.426-.798 0-.918-1.428-.289-3.104a22.571 22.571 0 011.816-3.71 11.776 11.776 0 012.065-2.867s.14-.337 1.247-.238c1.108.1 7.264.427 7.264.427l.05-2.252a143.265 143.265 0 0120.193-1.33v1.816a22.576 22.576 0 018.122-1.984.912.912 0 01.768.387c.34.427 2.405 2.976 2.644 3.343.67.953 1.28 1.947 1.826 2.976a6.174 6.174 0 01-.868 1.825v.01z"/><path fill="#F06351" d="M56.331 21.495c.47.595.878 1.121.998 1.28.67.953 1.28 1.947 1.826 2.976-.19.63-.48 1.226-.858 1.765-.44.427-1.347.714-1.497-.575-.15-1.29-.21-2.143-.21-2.143s-1.925-3.402-2.643-3.442c-.719-.04-5.817 3.442-7.164 4.96-1.167 1.28-1.397 1.19-1.397 3.442 0 1.488.17 6.596.13 11.14 1.806.198 4.46.694 5.258 1.864 0 0-.29-7.122 7.792-3.392 0 0 .28-9.711 11.434-7.221a43.584 43.584 0 00-13.669-10.654zm-10.506-2.301a89.212 89.212 0 00-1.397-16.397s-.15-1.29-.868-.238a14.084 14.084 0 00-1.197 3.968 71.13 71.13 0 00-12.79.337c-.819-2.728-2.215-3.968-2.884-3.64-.669.327-.748 3.253-.748 3.253l-.33 14.046a143.275 143.275 0 0120.214-1.33z"/><path fill="#E55645" d="M45.246 46.74c.13-1.062.2-2.47.24-4.028l-8.132 2.153a64.152 64.152 0 01-7.782 1.756l1.108 4.96c0 .108 0 .218.07.327a32.337 32.337 0 004.748 2.53 42.36 42.36 0 006.864-4.098v.06a15.113 15.113 0 002.884-3.66z"/><path fill="#000" d="M31.927 16.09c-.05-.1.998.674 1.407.912.409.238.608.416.608.585 0 .169-.26.337-.618.337-.36 0-.918-.119-.998-.258-.08-.139.599 0 .938 0h.29a8.043 8.043 0 01-1.627-1.577zm7.483.108s-.998 1.27-1.088 1.33c-.09.059-.17.337.19.287.412-.061.82-.154 1.217-.278.11-.06.07-.198-.12-.178-.19.02-.678.05-.997.109l.848-1.26s.03-.119-.05-.01zm-3.133 6.061a2.29 2.29 0 001.087-.992c.28-.655 0-.903-.438-.992a2.456 2.456 0 00-1.746.337c-.39.367-.34.724 0 .992.337.263.705.483 1.097.655z"/><path fill="#F06351" d="M35.918 23.509a2.02 2.02 0 01-.46.595c-.283.227-.633.36-.997.377a2.184 2.184 0 01-1.536-.437 1.993 1.993 0 01-.53-.446 1 1 0 00-.358-.248s.748 4.077 2.564 4.731c1.816.655 2.155-.753 2.205-1.13a5.56 5.56 0 00-.819-3.214c0-.298-.02-.1-.07-.228z"/><path fill="#000" d="M34.222 24.64a3.504 3.504 0 01-2.345-1.419.149.149 0 010-.198.138.138 0 01.1-.042.14.14 0 01.1.042 3.203 3.203 0 002.105 1.3 2.112 2.112 0 001.636-.993l.14-.188.1.218s.378.754.997.794c.619.04 1.057-.417 1.626-1.28a.144.144 0 01.24.159c-.666.972-1.294 1.438-1.886 1.398a1.551 1.551 0 01-1.117-.724 2.251 2.251 0 01-1.696.933z"/><path fill="#FDC305" d="M36.177 37.99c2.066 0 3.741-1.665 3.741-3.719s-1.675-3.72-3.74-3.72c-2.067 0-3.742 1.666-3.742 3.72 0 2.054 1.675 3.72 3.741 3.72z"/><path fill="#111" d="M41.136 31.246l-3.123 1.3 1.147-5.585-7.482 9.68 3.122-1.298-1.147 5.594 7.483-9.691zm-7.373 3.799l4.15-5.366-.808 3.967 1.995-.813-4.18 5.376.808-3.968-1.965.804zm-1.397-1.458c.617 0 1.117-.498 1.117-1.111 0-.614-.5-1.111-1.117-1.111s-1.117.497-1.117 1.11c0 .614.5 1.112 1.117 1.112zm6.505 4.027c.435 0 .788-.35.788-.784a.786.786 0 00-.788-.783.786.786 0 00-.788.783c0 .433.353.784.788.784zm.958-2.152a.348.348 0 100-.694.348.348 0 00-.35.346.35.35 0 00.35.348z"/><path fill="#F06351" d="M45.775 20.99a57.14 57.14 0 00-5.078 5.167 31.744 31.744 0 01-5.298 4.86c-.22-.525-1.626-1.507-1.626-1.507s-3.133-2.133-5.188-3.81a31.736 31.736 0 01-3.133-2.975l-1.996-.109a22.57 22.57 0 0011.973 8.769c.858-.14 3.272-1.855 5.078-3.254a57.362 57.362 0 005.987-5.862 6.318 6.318 0 001.137-1.984c-1.137.377-1.856.704-1.856.704z"/><path fill="#FDC305" d="M65.07 3.472l-8.44 9.364-1.217-1.974L63.544 0l1.527 3.472zM62.507 17.12l5.527-4.076-.778-3.71-5.388 4.771.639 3.016zm-2.724 31.852l6.116 3.154 3.003-2.321-6.674-2.728-2.445 1.895zM1.945 5.922l3.063-3.333 9.269 8.927-1.217 2.262L1.944 5.922zm5.418 10.227l-4.69-3.105L.28 16.883l5.138 2.38 1.946-3.114zm6.515 35.977l-4.54 3.323L12.133 59l4.01-3.988-2.264-2.886z"/><path fill="#F06351" d="M25.87 27.774s-3.8-1.428-5.197-1.815a3.771 3.771 0 00-3.991.625 5.004 5.004 0 00-1.726 3.819c.21.46.371.943.479 1.438.05.476-1.198.426-1.996.426s-.918-1.428-.29-3.104a22.571 22.571 0 011.817-3.71C9.528 28.27 0 34.777 0 34.777a45.981 45.981 0 018.171.238c5.238.526 4.989 4.632 4.989 4.632a38.754 38.754 0 015.617-1.1c2.115-.14 2.265 2.102 2.265 2.102l.529 3.83a18.221 18.221 0 012.644-2.342 6.07 6.07 0 014.37-1.29L25.87 27.775z"/><path fill="#111" d="M85.424 38.216a7.92 7.92 0 01-1.403-5.06v-7.312a8.041 8.041 0 011.382-5.109c.929-1.163 2.515-1.741 4.76-1.735 2.244.007 3.764.517 4.559 1.53a6.427 6.427 0 011.333 4.378v1.716h-4.149v-1.862a9.497 9.497 0 00-.13-1.463 1.622 1.622 0 00-.47-.926 1.576 1.576 0 00-1.153-.36 1.498 1.498 0 00-.87.134c-.27.131-.49.34-.633.597a5.202 5.202 0 00-.34 2.145v9.28a4.55 4.55 0 00.39 2.146c.145.243.36.44.617.567.258.126.549.177.836.145.282.038.57-.01.821-.14.252-.13.456-.333.582-.582a5.56 5.56 0 00.31-2.135v-1.95h4.148v1.687a6.925 6.925 0 01-1.232 4.494C93.9 39.473 92.377 40 90.213 40s-3.858-.585-4.79-1.784zm16.282-18.933h4.75l4.008 20.473h-3.948l-.711-4.523h-3.327l-.802 4.494h-4.008l4.038-20.444zm3.658 13.376l-1.263-8.229-1.252 8.229h2.515zm8.177-10.295h-3.247v-3.081h10.741v3.08h-3.206v17.364h-4.299l.011-17.363z"/><path fill="#444" d="M129.463 19.283h8.146v2.125h-5.21v6.756h4.228v2.018h-4.228v7.498h5.26v2.047h-8.196V19.283zm10.562 0h2.004l6.012 13.58v-13.58h2.444v20.473h-1.873l-6.012-13.96v13.931h-2.485l-.09-20.444zm13.697 0h8.137v2.125h-5.211v6.756h4.269v2.018h-4.229v7.498h5.231v2.047h-8.197V19.283zm10.552 0h4.228a7.158 7.158 0 014.68 1.277c1.002.848 1.493 2.233 1.493 4.153 0 2.6-.865 4.19-2.596 4.767l3.006 10.247h-2.845l-2.756-9.593h-2.274v9.593h-2.936V19.283zm4.008 8.774a3.956 3.956 0 002.705-.74c.315-.363.55-.785.692-1.24a3.4 3.4 0 00.13-1.403 5.55 5.55 0 00-.291-1.95 1.833 1.833 0 00-.391-.625 1.892 1.892 0 00-.611-.428 4.887 4.887 0 00-2.054-.34h-1.292v6.765l1.112-.039zm10.341 10.159A8.823 8.823 0 01177.35 33v-6.825a12.863 12.863 0 01.501-3.9 4.38 4.38 0 011.744-2.349 6.053 6.053 0 013.367-.819 5.408 5.408 0 012.258.271c.723.25 1.382.65 1.93 1.172a6.686 6.686 0 011.282 4.514v.76h-2.755v-.633a10.93 10.93 0 00-.18-2.262 1.946 1.946 0 00-.762-1.2 3.074 3.074 0 00-1.723-.399 2.574 2.574 0 00-1.814.546 2.474 2.474 0 00-.771 1.443 14.096 14.096 0 00-.171 2.428v7.594a7.155 7.155 0 00.591 3.373c.272.328.617.59 1.009.767a2.905 2.905 0 002.494-.049c.384-.192.718-.468.976-.805a7.725 7.725 0 00.612-3.559v-1.443h-2.666v-2.018h5.311v10.12h-1.814l-.29-2.35a3.601 3.601 0 01-1.403 1.936 3.769 3.769 0 01-2.335.667 4.787 4.787 0 01-2.292-.367 4.651 4.651 0 01-1.826-1.397zm16.052-5.703l-4.539-13.23h2.726l3.216 9.866 3.167-9.866H202l-4.509 13.23v7.214h-2.806l-.01-7.214z"/></g></g></symbol><symbol id="logo-mobile"><g fill="none"><g clip-path="url(#a)"><path fill="#FDC305" d="M6.012 20.935V18.65a139.135 139.135 0 0119.976-1.343c0 .606 0 1.222-.06 1.838 1.9-.86 3.896-1.477 5.943-1.838a16.767 16.767 0 00-6.767-8.285 16.248 16.248 0 00-10.306-2.398c-3.6.374-6.98 1.945-9.62 4.47A16.948 16.948 0 00.188 20.6l5.824.334zm20.966 3.546c-1.149 1.293-1.376 1.213-1.376 3.486v9.275a16.692 16.692 0 005.425-6.052A17.08 17.08 0 0033 23.237c-.013-1.051-.12-2.1-.317-3.132a32.856 32.856 0 00-5.705 4.375zM6.299 25.987s-3.754-1.455-5.14-1.85A8.33 8.33 0 000 23.856a17.066 17.066 0 002.463 8.233A16.633 16.633 0 008.598 38L6.299 25.987z"/><path fill="#F06351" d="M26.038 17.297A92.52 92.52 0 0024.65.657s-.139-1.304-.881-.243a14.583 14.583 0 00-1.189 3.981 68.295 68.295 0 00-12.647.344C9.15 2.02 7.774.758 7.11 1.01c-.664.253-.713 3.345-.713 3.345L6.071 18.6a139.094 139.094 0 0119.967-1.303z"/><path fill="#000" d="M12.29 14.145c0-.09.991.687 1.397.93.406.242.604.424.604.596s-.267.343-.623.343c-.357 0-.902-.12-.99-.272h1.217a8.34 8.34 0 01-1.604-1.597zm7.409.111l-1.08 1.344c0 .06-.168.354.179.303.41-.062.814-.16 1.208-.293.109 0 .07-.192-.109-.172-.178.02-.683.051-.99.112l.832-1.274s.069-.13-.04-.02zM16.59 20.41a2.306 2.306 0 001.079-1.01c.277-.658 0-.92-.436-1.011a2.367 2.367 0 00-1.723.343c-.387.364-.337.728-.05 1.01.348.27.727.494 1.13.668z"/><path fill="#F06351" d="M16.193 21.672a1.944 1.944 0 01-.456.607 1.693 1.693 0 01-.99.384 2.1 2.1 0 01-1.456-.435 2.289 2.289 0 01-.525-.444 1.059 1.059 0 00-.356-.263s.742 4.142 2.545 4.8c1.803.656 2.12-.759 2.179-1.143a5.758 5.758 0 00-.812-3.263c-.02-.313-.03-.111-.129-.243z"/><path fill="#000" d="M14.569 22.824a3.364 3.364 0 01-1.3-.474 3.437 3.437 0 01-1.039-1.007.145.145 0 01.076-.187.136.136 0 01.153.031 3.22 3.22 0 002.09 1.314c.328-.025.646-.13.927-.306.28-.176.516-.417.687-.704l.139-.192.099.212s.366.768.99.808c.624.04 1.04-.414 1.595-1.293a.138.138 0 01.198 0c.032.02.055.053.064.09a.154.154 0 01-.015.112c-.633 1.01-1.257 1.455-1.861 1.414a1.518 1.518 0 01-.642-.253 1.555 1.555 0 01-.468-.514 2.255 2.255 0 01-.74.67c-.294.165-.62.26-.953.28z"/><path fill="#F06351" d="M25.988 19.116a58.7 58.7 0 00-5.021 5.244 31.579 31.579 0 01-5.24 4.94c-.217-.535-1.604-1.525-1.604-1.525s-3.1-2.162-5.13-3.86a34.1 34.1 0 01-3.1-3.03l-1.98-.112c2.861 4.25 7.05 7.384 11.884 8.892.852-.142 3.238-1.88 5.021-3.294a58.146 58.146 0 005.883-5.951 6.286 6.286 0 001.13-2.021c-1.09.394-1.843.717-1.843.717z"/></g><g fill="#111" clip-path="url(#b)"><path d="M90.264 26.538A6.865 6.865 0 0189 22.231v-6.385a6.95 6.95 0 011.186-4.385c.869-1 2.212-1.461 4.188-1.461 1.976 0 3.24.461 4.03 1.308a5.422 5.422 0 011.186 3.769v1.538h-3.873v-1.769a3.691 3.691 0 00-.237-1.538 1.12 1.12 0 00-.456-.473 1.164 1.164 0 00-.65-.143c-.553 0-.948.154-1.106.539a4.846 4.846 0 00-.237 1.692v8.23a3.112 3.112 0 00.316 1.616c.158.385.553.539 1.106.539s.87-.154 1.027-.539c.18-.52.26-1.067.237-1.615v-1.846h3.873v1.538a5.775 5.775 0 01-1.186 3.846c-.79.923-2.133 1.385-4.03 1.385-1.897-.077-3.32-.539-4.11-1.539zm13.989-16.308h4.504l3.32 17.54h-3.636l-.632-3.693h-2.608l-.632 3.692h-3.715l3.399-17.538zm3.24 11.54l-.948-6.847-.949 6.846h1.897zm7.35-8.616h-2.687V10.23h9.404v2.846h-2.687v14.692h-4.03V13.154zm13.909-2.924h6.955v1.847h-4.505v5.77h3.635v1.768h-3.635v6.462h4.505v1.77h-7.034V10.23h.079zm9.009 0h1.739l5.137 11.616V10.231h2.055v17.538h-1.581l-5.216-12v12h-2.134V10.231zm11.302 0h6.954v1.847h-4.504v5.77h3.635v1.768h-3.635v6.462h4.504v1.77h-6.954V10.23zm9.009 0h3.635a6.452 6.452 0 014.031 1.078c.869.692 1.264 1.923 1.264 3.538 0 2.23-.711 3.616-2.212 4.077l2.528 8.77h-2.449l-2.371-8.232h-1.976v8.231h-2.529V10.231h.079zm3.477 7.54a3.523 3.523 0 002.292-.616c.474-.385.711-1.154.711-2.308a4.84 4.84 0 00-.237-1.692 1.975 1.975 0 00-.869-.923 3.69 3.69 0 00-1.739-.308h-1.106v5.77h.948v.076zm8.615 8.692A7.607 7.607 0 01169.057 22v-5.846a12.307 12.307 0 01.395-3.308 3.92 3.92 0 011.502-2 5.27 5.27 0 012.924-.692c1.66 0 2.845.385 3.556 1.23a5.773 5.773 0 011.107 3.847v.615h-2.371v-.538c.003-.644-.05-1.288-.158-1.923a1.533 1.533 0 00-.633-1 2.491 2.491 0 00-1.501-.385 2.417 2.417 0 00-1.581.461 1.734 1.734 0 00-.632 1.231 14.024 14.024 0 00-.158 2.077v6.539a6.816 6.816 0 00.474 2.923c.316.615.949.846 1.897.846.374.045.754-.018 1.092-.182.337-.165.617-.422.805-.741a6.922 6.922 0 00.553-3.077v-1.23h-2.292v-1.77h4.584v8.692h-1.581l-.237-2a3.143 3.143 0 01-1.226 1.658 3.287 3.287 0 01-2.014.573 4.047 4.047 0 01-1.899-.352 3.928 3.928 0 01-1.499-1.186zm13.514-4.847l-3.873-11.307h2.371l2.766 8.461 2.687-8.461H190l-3.872 11.307v6.154h-2.371v-6.154h-.079z"/></g></g></symbol><symbol id="logo-tablet"><g fill="none"><g clip-path="url(#a)"><path fill="#FDC305" d="M51.208 19.05a22.293 22.293 0 00-6.886-9.125A21.672 21.672 0 0033.896 5.51a21.504 21.504 0 00-11.197 1.469 21.954 21.954 0 00-8.992 6.962 22.581 22.581 0 00-4.399 10.607 22.76 22.76 0 001.364 11.433 22.31 22.31 0 006.763 9.22 21.684 21.684 0 0010.367 4.56c-.496-1.823-1-3.839-1.446-5.976 1.294.856 2.656 1.6 4.071 2.225 0 0 .103 1.884.24 3.987 1.529.027 3.057-.11 4.558-.41a1.908 1.908 0 010-.663c.248-1.632.932-4.572 1.069-6.465a13.243 13.243 0 002.48-3.237l-.052.384c-.47 3.716-1.453 7.686-2.052 8.785a4.865 4.865 0 01-.71 1.004 21.747 21.747 0 008.501-4.158 22.278 22.278 0 006.004-7.416 22.77 22.77 0 00.743-18.77zm-1.257 3.308c-.376.375-1.154.628-1.283-.507a30.81 30.81 0 01-.162-1.928s-1.65-2.992-2.266-3.027c-.616-.035-4.986 3.027-6.14 4.362-1.001 1.126-1.198 1.047-1.198 3.028 0 1.491.188 7.127.086 11.437l-6.97 1.894a53.797 53.797 0 01-6.67 1.5l-.856-5.086h-.12l-2.197-11.49s-3.259-1.257-4.456-1.597a3.157 3.157 0 00-1.79-.235 3.189 3.189 0 00-1.63.785 4.418 4.418 0 00-1.1 1.515 4.499 4.499 0 00-.38 1.844c.18.405.318.83.41 1.265.043.419-1.026.375-1.71.375-.684 0-.787-1.256-.248-2.73.42-1.135.941-2.227 1.556-3.264a10.352 10.352 0 011.77-2.521s.12-.297 1.07-.21c.949.088 6.225.375 6.225.375l.043-1.98a119.71 119.71 0 0117.31-1.169v1.597a18.947 18.947 0 016.96-1.745.765.765 0 01.659.34c.29.375 2.06 2.617 2.266 2.94a24.51 24.51 0 011.565 2.617 5.493 5.493 0 01-.744 1.606v.009z"/><path fill="#F06351" d="M48.284 17.018c.402.523.752.986.855 1.125a24.51 24.51 0 011.565 2.618 5.493 5.493 0 01-.735 1.553c-.377.375-1.155.628-1.283-.506-.128-1.134-.18-1.885-.18-1.885s-1.65-2.992-2.266-3.027c-.616-.035-4.986 3.027-6.14 4.362-1 1.126-1.197 1.047-1.197 3.028 0 1.308.145 5.801.11 9.797 1.549.175 3.823.61 4.508 1.64 0 0-.248-6.264 6.679-2.983 0 0 .239-8.542 9.8-6.352a37.507 37.507 0 00-11.716-9.37zm-9.005-2.024A80.462 80.462 0 0038.08.572s-.128-1.134-.744-.209a12.63 12.63 0 00-1.026 3.49 59.424 59.424 0 00-10.963.296C24.647 1.75 23.449.66 22.876.948c-.573.287-.641 2.861-.641 2.861l-.282 12.354c5.74-.809 11.53-1.2 17.326-1.169z"/><path fill="#E55645" d="M38.782 39.222c.111-.934.171-2.172.205-3.542l-6.97 1.893a53.8 53.8 0 01-6.67 1.544l.95 4.363c0 .096 0 .191.06.287 1.294.856 2.655 1.6 4.07 2.225a36.127 36.127 0 005.884-3.603v.052a13.243 13.243 0 002.471-3.22z"/><path fill="#000" d="M27.366 12.263c-.043-.087.855.594 1.206.803.35.21.521.366.521.515 0 .148-.222.296-.53.296-.308 0-.787-.104-.855-.227-.068-.122.513 0 .804 0h.248a6.98 6.98 0 01-1.394-1.387zm6.414.097s-.855 1.116-.932 1.168c-.077.053-.146.297.162.253a6.81 6.81 0 001.044-.244c.094-.052.06-.175-.103-.157-.163.017-.582.044-.855.096l.727-1.108s.025-.105-.043-.009zm-2.685 5.33c.396-.178.724-.485.932-.873.24-.575 0-.794-.377-.872a2.061 2.061 0 00-1.496.297c-.334.322-.29.636 0 .872.289.231.605.425.94.576z"/><path fill="#F06351" d="M30.787 18.79a1.785 1.785 0 01-.394.523c-.243.2-.543.316-.855.331-.47.047-.942-.09-1.317-.384a1.722 1.722 0 01-.453-.392.855.855 0 00-.308-.218s.641 3.585 2.198 4.161c1.556.576 1.847-.663 1.89-.994a4.99 4.99 0 00-.701-2.827c0-.262-.018-.087-.06-.2z"/><path fill="#000" d="M29.333 19.784c-.4-.059-.785-.2-1.13-.414a3.016 3.016 0 01-.88-.834.132.132 0 010-.174.119.119 0 01.132-.027.12.12 0 01.04.027 2.749 2.749 0 001.804 1.143 1.78 1.78 0 00.804-.264c.244-.152.449-.36.598-.609l.12-.166.085.192s.325.663.856.698c.53.035.906-.366 1.393-1.125a.121.121 0 01.171-.035.128.128 0 01.034.174c-.57.855-1.108 1.265-1.616 1.23a1.309 1.309 0 01-.55-.207 1.34 1.34 0 01-.407-.43 1.946 1.946 0 01-.636.578 1.908 1.908 0 01-.818.243z"/><path fill="#FDC305" d="M31.009 31.527c1.771 0 3.207-1.465 3.207-3.272 0-1.807-1.436-3.271-3.207-3.271s-3.207 1.464-3.207 3.271 1.436 3.272 3.207 3.272z"/><path fill="#111" d="M35.259 25.594l-2.677 1.143.984-4.912-6.414 8.515 2.677-1.142-.984 4.92 6.414-8.524zm-6.32 3.342l3.558-4.72-.693 3.49 1.71-.716-3.583 4.729.693-3.49-1.684.707zm-1.197-1.283a.968.968 0 00.958-.977.968.968 0 00-.958-.977.968.968 0 00-.957.977c0 .54.428.977.957.977zm5.576 3.542a.683.683 0 00.676-.689c0-.38-.303-.69-.676-.69a.683.683 0 00-.675.69c0 .38.302.69.675.69zm.822-1.893a.302.302 0 00.298-.305.302.302 0 00-.299-.306c-.165 0-.3.137-.3.306 0 .168.135.305.3.305z"/><path fill="#F06351" d="M39.236 16.573a49.68 49.68 0 00-4.353 4.546 27.484 27.484 0 01-4.54 4.275c-.19-.463-1.395-1.326-1.395-1.326s-2.685-1.876-4.447-3.35a27.527 27.527 0 01-2.685-2.618l-1.71-.096a19.375 19.375 0 0010.262 7.712c.735-.122 2.805-1.631 4.353-2.861a49.809 49.809 0 005.13-5.156 5.597 5.597 0 00.976-1.745c-.975.331-1.591.62-1.591.62zM22.175 22.54s-3.258-1.256-4.456-1.596a3.158 3.158 0 00-1.789-.235 3.19 3.19 0 00-1.631.785 4.418 4.418 0 00-1.099 1.515 4.499 4.499 0 00-.38 1.844c.18.405.318.83.41 1.265.043.419-1.027.375-1.71.375-.685 0-.787-1.256-.249-2.73a20.02 20.02 0 011.557-3.264C8.168 22.977 0 28.7 0 28.7a38.402 38.402 0 017.004.21c4.49.462 4.276 4.074 4.276 4.074a32.466 32.466 0 014.815-.968c1.813-.123 1.94 1.85 1.94 1.85l.454 3.367c.688-.76 1.447-1.45 2.266-2.06a5.111 5.111 0 013.746-1.133l-2.326-11.5z"/><path fill="#111" d="M74.218 32.47a6.796 6.796 0 01-1.2-4.336v-6.268a6.9 6.9 0 011.183-4.378c.795-.998 2.153-1.493 4.074-1.488 1.921.006 3.222.443 3.902 1.312a5.515 5.515 0 011.14 3.752v1.47h-3.55V20.94a8.142 8.142 0 00-.111-1.254 1.39 1.39 0 00-.403-.794 1.349 1.349 0 00-.987-.309 1.28 1.28 0 00-.744.116c-.23.112-.42.29-.542.511a4.464 4.464 0 00-.292 1.838v7.956c-.039.63.076 1.26.335 1.838.124.209.307.378.528.486.221.109.47.152.715.124.242.034.488-.008.704-.12.215-.11.39-.285.497-.498.208-.588.298-1.21.266-1.83V27.33h3.55v1.446a5.942 5.942 0 01-1.054 3.852C81.474 33.55 80.17 34 78.318 34c-1.853 0-3.302-.501-4.1-1.53zm13.938-16.228h4.065l3.43 17.55h-3.379l-.609-3.878h-2.847l-.686 3.852H84.7l3.456-17.524zm3.13 11.465l-1.08-7.052-1.073 7.052h2.153zm6.999-8.824h-2.779v-2.64h9.194v2.64h-2.745v14.883h-3.679l.009-14.883z"/><path fill="#444" d="M111.913 16.242h6.973v1.822h-4.46v5.791h3.619v1.73h-3.619v6.426h4.503v1.755h-7.016V16.242zm9.04 0h1.716l5.145 11.641v-11.64h2.093V33.79h-1.604l-5.146-11.966v11.941h-2.127l-.077-17.524zm11.725 0h6.964v1.822h-4.46v5.791h3.654v1.73h-3.62v6.426h4.477v1.755h-7.015V16.242zm9.031 0h3.619a6.118 6.118 0 014.005 1.095c.858.727 1.278 1.914 1.278 3.56 0 2.228-.74 3.59-2.221 4.086l2.573 8.783h-2.436l-2.358-8.223h-1.947v8.223h-2.513V16.242zm3.431 7.521a3.381 3.381 0 002.315-.635c.27-.31.471-.672.592-1.061a2.9 2.9 0 00.111-1.204 4.773 4.773 0 00-.248-1.67 1.582 1.582 0 00-.858-.903 4.179 4.179 0 00-1.758-.293h-1.106v5.8l.952-.034zm8.851 8.707a7.566 7.566 0 01-1.089-4.47v-5.85a11.02 11.02 0 01.428-3.342 3.753 3.753 0 011.493-2.014 5.171 5.171 0 012.881-.702 4.623 4.623 0 011.933.232 4.53 4.53 0 011.652 1.005 5.739 5.739 0 011.098 3.869v.652h-2.358v-.544a9.34 9.34 0 00-.155-1.938 1.662 1.662 0 00-.652-1.028 2.626 2.626 0 00-1.475-.343 2.199 2.199 0 00-1.552.468 2.118 2.118 0 00-.66 1.237 11.982 11.982 0 00-.146 2.08v6.51a6.13 6.13 0 00.506 2.892c.233.28.528.505.863.657a2.487 2.487 0 002.135-.042 2.41 2.41 0 00.835-.69 6.616 6.616 0 00.524-3.05v-1.237h-2.282v-1.73h4.546v8.674h-1.553l-.248-2.014a3.088 3.088 0 01-1.201 1.659 3.224 3.224 0 01-1.998.572 4.09 4.09 0 01-1.962-.315 3.982 3.982 0 01-1.563-1.197zm13.74-4.888l-3.885-11.34h2.332l2.753 8.457 2.711-8.457H174l-3.859 11.34v6.184h-2.402l-.008-6.184z"/></g></g></symbol><symbol id="logotype"><g fill="none"><path fill="#111" d="M1.624 22.457A9.428 9.428 0 01.02 16.738V8.262A9.559 9.559 0 011.523 2.44C2.625 1.113 4.327.5 6.831.5c2.503 0 4.106.613 5.107 1.736A7.433 7.433 0 0113.44 7.24v2.043H8.533V6.934a5.116 5.116 0 00-.3-2.043 1.46 1.46 0 00-.579-.627 1.42 1.42 0 00-.823-.19c-.701 0-1.202.205-1.402.715a6.72 6.72 0 00-.3 2.247v10.928a4.3 4.3 0 00.4 2.145c.2.51.701.714 1.402.714s1.102-.204 1.302-.715c.227-.69.33-1.417.3-2.144v-2.451h4.907v2.042a7.922 7.922 0 01-1.502 5.107C10.937 23.887 9.234 24.5 6.831 24.5c-2.403-.102-4.206-.715-5.207-2.043zM19.348.806h5.708l4.206 23.285h-4.606l-.801-4.902H20.55l-.801 4.902h-4.707L19.348.806zm4.106 15.32l-1.202-9.09-1.201 9.09h2.403zm9.313-11.439h-3.405V.807H41.28v3.778h-3.405v19.506h-5.107V4.688zM50.392.806h8.812v2.451h-5.708v7.66h4.606v2.349h-4.606v8.579h5.708v2.349H50.29V.806h.1zm11.416 0h2.203l6.509 15.422V.806h2.603v23.285h-2.002L64.51 8.16v15.93h-2.703V.806zm14.32 0h8.812v2.451h-5.708v7.66h4.606v2.349h-4.606v8.579h5.708v2.349h-8.812V.806zm11.415 0h4.607a7.896 7.896 0 015.107 1.43c1.102.92 1.602 2.553 1.602 4.698 0 2.962-.901 4.8-2.804 5.413l3.205 11.642h-3.105l-3.004-10.927h-2.503v10.927h-3.205V.806h.1zm4.407 10.009a4.313 4.313 0 002.904-.817c.6-.51.901-1.532.901-3.064a6.72 6.72 0 00-.3-2.247 2.575 2.575 0 00-1.102-1.225 4.489 4.489 0 00-2.203-.409h-1.402v7.66h1.202v.102zm10.915 11.54a10.485 10.485 0 01-1.402-5.923V8.67c-.025-1.48.144-2.957.501-4.391a5.186 5.186 0 011.902-2.656 6.44 6.44 0 013.706-.919c2.102 0 3.605.51 4.506 1.634a7.93 7.93 0 011.402 5.107v.817h-3.004v-.715c.004-.855-.063-1.71-.201-2.553a2.045 2.045 0 00-.801-1.328 3.048 3.048 0 00-1.902-.51 2.964 2.964 0 00-2.003.612 2.331 2.331 0 00-.801 1.634 19.568 19.568 0 00-.201 2.758v8.68a9.45 9.45 0 00.601 3.881c.401.817 1.202 1.124 2.404 1.124.474.06.955-.024 1.383-.242a2.44 2.44 0 001.02-.984 9.572 9.572 0 00.701-4.085V14.9h-2.904v-2.349h5.808v11.54h-2.003l-.3-2.655a4.166 4.166 0 01-1.553 2.202 4.03 4.03 0 01-2.553.76 4.927 4.927 0 01-2.406-.468 5.032 5.032 0 01-1.9-1.575zm17.124-6.434L115.082.908h3.004l3.505 11.235L124.996.908H128l-4.907 15.013v8.17h-3.004v-8.17h-.1z"/></g></symbol><symbol id="product-plus"><g fill="none"><path stroke="#D3D3D3" stroke-width="2" d="M31.5.5v60m29-29H.5"/></g></symbol><symbol id="work-powder-mobile"><g fill="none"><path fill="#68B738" d="M0 0h60v60H0z"/><path fill="#fff" d="M28.375 16c-1.631 0-2.9 1.36-2.9 3.081 0 1.722 1.269 3.082 2.9 3.082s2.9-1.36 2.9-3.082c0-1.722-1.269-3.081-2.9-3.081zm0 1.178c.997 0 1.722.843 1.722 1.903 0 .997-.789 1.903-1.722 1.903-.997 0-1.722-.842-1.722-1.903 0-.997.78-1.903 1.722-1.903zM17.5 40.741c0 1.178.408 2.175 1.36 2.99.996.852 2.174.78 2.174.78h19.032c.779 0 1.812-.381 2.628-1.45.843-.997.788-2.357.788-2.357V23.486c0-.435-.109-.599-.743-.599s-.689.272-.689.59v17.218c-.018.3-.072 1.088-.743 1.722-.734.625-1.45.544-1.45.544s-18.125 0-19.031-.027c-.344-.064-.906-.19-1.45-.906-.508-.725-.408-1.632-.408-1.632V23.177c0-.462-.235-.634-.725-.634s-.743.172-.743.58v17.618zm16.313-16.313c-1.088.236-2.176.38-4.26 2.356-2.084 1.994-3.625 1.904-5.166 1.813-1.54-.09-3.171-1.54-3.443-1.903-.336-.354-.906-.118-1.088.118-.154.235-.154.643.109.996 1.269 1.179 2.447 2.085 4.712 2.266 2.266.218 4.441-.807 5.891-2.266 1.45-1.45 2.175-1.721 3.263-1.903 2.628-.417 4.168.617 5.075 1.27.997 1.087 1.268.778 1.54.47.544-.716-.226-1.268-1.087-1.903-1.813-1.178-3.535-1.631-5.528-1.269l-.019-.045zm-9.063 7.16c-1.178 0-2.084.996-2.084 2.265 0 1.269.906 2.266 2.084 2.266s2.084-.997 2.084-2.266c0-1.269-.906-2.266-2.084-2.266zm11.781.779c-1.54 0-2.81 1.36-2.81 2.99 0 1.632 1.27 2.991 2.81 2.991s2.81-1.36 2.81-2.99c0-1.632-1.27-2.991-2.81-2.991zm0 1.45c.798 0 1.45.698 1.45 1.54 0 .861-.652 1.541-1.45 1.541-.797 0-1.45-.698-1.45-1.54 0-.861.653-1.541 1.45-1.541z"/></g></symbol><symbol id="work-powder-tablet"><g fill="none"><path fill="#68B738" d="M0 0h80v80H0z"/><path fill="#fff" d="M37.86 26c-1.628 0-2.895 1.368-2.895 3.1s1.267 3.1 2.896 3.1 2.896-1.368 2.896-3.1S39.49 26 37.861 26zm0 1.185c.996 0 1.72.848 1.72 1.915 0 1.003-.787 1.915-1.72 1.915-.995 0-1.719-.848-1.719-1.915 0-1.003.779-1.915 1.72-1.915zM27 50.89c0 1.185.407 2.188 1.358 3.009.995.857 2.172.784 2.172.784h19.006c.779 0 1.81-.383 2.625-1.459.842-1.003.787-2.37.787-2.37V33.53c0-.438-.108-.602-.742-.602-.633 0-.688.274-.688.593v17.322c-.018.301-.072 1.094-.742 1.733-.733.629-1.448.547-1.448.547s-18.101 0-19.006-.028c-.344-.063-.905-.191-1.448-.911-.507-.73-.408-1.642-.408-1.642v-17.32c0-.465-.235-.638-.724-.638s-.742.173-.742.583V50.89zm16.291-16.411c-1.086.237-2.172.383-4.253 2.37-2.082 2.006-3.62 1.915-5.16 1.824-1.538-.091-3.167-1.55-3.439-1.915-.335-.355-.905-.118-1.086.119-.154.237-.154.647.109 1.003 1.267 1.185 2.444 2.097 4.706 2.279 2.263.219 4.435-.811 5.883-2.28 1.448-1.458 2.172-1.731 3.258-1.914 2.625-.42 4.164.62 5.069 1.276.995 1.095 1.267.785 1.538.475.544-.72-.226-1.277-1.086-1.915-1.81-1.185-3.53-1.641-5.52-1.276l-.019-.046zm-9.05 7.203c-1.177 0-2.082 1.002-2.082 2.279 0 1.276.905 2.28 2.082 2.28 1.176 0 2.081-1.004 2.081-2.28 0-1.276-.905-2.28-2.081-2.28zm11.766.784c-1.54 0-2.806 1.367-2.806 3.008 0 1.642 1.267 3.009 2.806 3.009 1.538 0 2.805-1.367 2.805-3.009 0-1.64-1.267-3.008-2.805-3.008zm0 1.458c.796 0 1.448.703 1.448 1.55 0 .867-.652 1.55-1.448 1.55-.797 0-1.449-.702-1.449-1.55 0-.866.652-1.55 1.449-1.55z"/></g></symbol><symbol id="work-reception-mobile"><g fill="none"><path fill="#68B738" d="M0 0h60v60H0z"/><path fill="#fff" fill-rule="evenodd" d="M36.117 15.076a1 1 0 011.09.217c.909.908 2.097 2.878 3.059 5.918C41.237 24.28 42 28.508 42 34a1 1 0 01-1 1h-3.5v9a1 1 0 11-2 0V16a1 1 0 01.617-.924zM37.5 33h2.491c-.086-4.816-.786-8.512-1.632-11.186-.278-.88-.57-1.642-.859-2.295V33zm-14-18a1 1 0 011 1v28a1 1 0 11-2 0V16a1 1 0 011-1z" clip-rule="evenodd"/><path fill="#fff" fill-rule="evenodd" d="M19 15a1 1 0 011 1v5.5c0 .557.192 1.315.7 1.917.48.566 1.315 1.083 2.8 1.083a1 1 0 110 2c-2.015 0-3.43-.733-4.326-1.792A5.068 5.068 0 0118 21.5V16a1 1 0 011-1z" clip-rule="evenodd"/><path fill="#fff" fill-rule="evenodd" d="M28 15a1 1 0 00-1 1v5.5a3.07 3.07 0 01-.7 1.917c-.48.566-1.315 1.083-2.8 1.083a1 1 0 000 2c2.014 0 3.43-.733 4.326-1.792A5.068 5.068 0 0029 21.5V16a1 1 0 00-1-1z" clip-rule="evenodd"/></g></symbol><symbol id="work-reception-tablet"><g fill="none"><path fill="#68B738" d="M0 0h80v80H0z"/><path fill="#fff" fill-rule="evenodd" d="M46.617 25.076a1 1 0 011.09.217c.909.908 2.097 2.878 3.059 5.918C51.737 34.28 52.5 38.508 52.5 44a1 1 0 01-1 1H48v9a1 1 0 11-2 0V26a1 1 0 01.617-.924zM48 43h2.491c-.086-4.816-.786-8.513-1.632-11.186-.278-.88-.57-1.642-.859-2.295V43zM34 25a1 1 0 011 1v28a1 1 0 11-2 0V26a1 1 0 011-1z" clip-rule="evenodd"/><path fill="#fff" fill-rule="evenodd" d="M29.5 25a1 1 0 011 1v5.5c0 .557.192 1.315.7 1.917.48.566 1.314 1.083 2.8 1.083a1 1 0 110 2c-2.015 0-3.43-.733-4.326-1.792A5.068 5.068 0 0128.5 31.5V26a1 1 0 011-1z" clip-rule="evenodd"/><path fill="#fff" fill-rule="evenodd" d="M38.5 25a1 1 0 00-1 1v5.5a3.07 3.07 0 01-.7 1.917c-.48.566-1.315 1.083-2.8 1.083a1 1 0 000 2c2.014 0 3.43-.733 4.326-1.792A5.068 5.068 0 0039.5 31.5V26a1 1 0 00-1-1z" clip-rule="evenodd"/></g></symbol><symbol id="work-sheet-mobile"><g fill="none"><path fill="#68B738" d="M0 0h60v60H0z"/><g clip-path="url(#a)"><path fill="#fff" d="M42.844 16.767c-.1-.45-.48-.767-.912-.767h-.005c-4.938.033-16.945.916-21.793 8.38-2.518 3.878-2.735 8.913-.644 14.965.016.047.048.079.07.122-.747 1.973-1.037 3.286-1.044 3.323-.11.54.214 1.072.72 1.188a.88.88 0 00.197.022c.433 0 .822-.321.916-.79.02-.102 2.409-10.373 10.854-16.378.431-.306.547-.927.26-1.387-.288-.46-.87-.585-1.3-.277-4.79 3.405-7.739 8.008-9.473 11.656-1.242-4.578-.916-8.377.986-11.305 3.743-5.764 12.622-7.154 17.982-7.448-1.153 1.801-2.413 5.103-2.413 10.929 0 3.12-.83 5.522-2.465 7.14-2.62 2.591-6.88 2.834-9.993 2.584-.518-.045-.967.371-1.006.922-.04.55.347 1.03.863 1.072.623.051 1.29.082 1.981.082 3.17 0 6.87-.663 9.43-3.194 2.034-2.011 3.065-4.906 3.065-8.605 0-9.099 3.216-11.096 3.232-11.105.39-.209.594-.677.492-1.129z"/></g></g></symbol><symbol id="work-sheet-tablet"><g fill="none"><path fill="#68B738" d="M0 0h80v80H0z"/><g clip-path="url(#a)"><path fill="#fff" d="M51.775 27.767c-.1-.45-.479-.767-.91-.767h-.007c-4.937.033-16.945.916-21.793 8.38-2.518 3.878-2.734 8.913-.644 14.965.016.047.05.079.07.122-.747 1.973-1.036 3.286-1.044 3.323-.108.54.215 1.072.721 1.188a.88.88 0 00.197.022c.432 0 .821-.321.916-.79.02-.102 2.408-10.373 10.853-16.378.432-.306.548-.927.26-1.387-.288-.46-.869-.585-1.3-.277-4.789 3.405-7.738 8.008-9.473 11.656-1.24-4.578-.916-8.377.987-11.305 3.743-5.764 12.622-7.154 17.982-7.448-1.153 1.801-2.413 5.103-2.413 10.929 0 3.12-.83 5.522-2.465 7.14-2.621 2.591-6.88 2.834-9.994 2.584-.517-.045-.966.371-1.006.922-.04.55.348 1.03.864 1.072a24.34 24.34 0 001.98.082c3.171 0 6.87-.663 9.43-3.194 2.034-2.011 3.066-4.906 3.066-8.605 0-9.099 3.215-11.096 3.231-11.105.39-.209.595-.677.492-1.129z"/></g></g></symbol><symbol id="work-time-mobile"><g fill="none"><path fill="#68B738" d="M0 0h60v60H0z"/><path fill="#fff" d="M23.12 15c-1.066 0-1.066 1.583 0 1.583h6.668v1.604c-6.827.433-12.225 6.227-12.225 13.298 0 4.01 1.75 7.63 4.512 10.069.48.422.544 1.171.107 1.636l-1.536 1.551c-.747.686.362 1.752 1.034 1.003l2.006-2.037a1.164 1.164 0 011.312-.211 12.785 12.785 0 0011.105.063c.427-.211.96-.127 1.301.211l1.942 1.974c.683.633 1.664-.317 1.046-1.003l-1.451-1.477c-.448-.454-.384-1.204.106-1.636a13.467 13.467 0 003.415-4.583 13.335 13.335 0 001.194-5.57c0-7.071-5.43-12.876-12.268-13.288v-1.604h6.667c1.067 0 1.067-1.583 0-1.583H23.121zm-4.117 16.475c0-6.533 5.195-11.82 11.606-11.82 6.4 0 11.596 5.287 11.596 11.82 0 6.543-5.195 11.841-11.596 11.841-6.4 0-11.606-5.298-11.606-11.841zm10.796-8.095c0-1.098 1.664-1.098 1.664 0v8.633a.84.84 0 01-.25.597.858.858 0 01-.604.247.816.816 0 01-.57-.23.798.798 0 01-.24-.561V23.38zm-4.993 2.617c.308 0 .604-.12.822-.337a1.144 1.144 0 000-1.627 1.17 1.17 0 00-.822-.337c-.288.028-.555.16-.75.372a1.143 1.143 0 000 1.547c.195.212.462.344.75.372v.01zm11.596 0c.308 0 .604-.12.822-.337a1.144 1.144 0 000-1.627 1.17 1.17 0 00-.822-.337c-.288.028-.555.16-.75.372a1.144 1.144 0 000 1.547c.195.212.462.344.75.372v.01zM25.969 38.588c0 1.53-2.326 1.53-2.326 0s2.326-1.53 2.326 0zm4.64 3.44a1.176 1.176 0 00.893-.293 1.153 1.153 0 00.381-.851 1.14 1.14 0 00-.38-.852 1.167 1.167 0 00-.894-.293 1.17 1.17 0 00-.75.371 1.143 1.143 0 000 1.547c.195.212.462.344.75.372zm-8.118-10.384a1.139 1.139 0 01-.297.883 1.163 1.163 0 01-.86.377 1.173 1.173 0 01-.86-.377 1.147 1.147 0 01-.298-.883c.028-.285.162-.55.376-.742a1.17 1.17 0 011.564 0c.214.193.348.457.375.742zm17.388 1.15a1.173 1.173 0 00.894-.294 1.152 1.152 0 00.38-.851 1.14 1.14 0 00-.38-.852 1.164 1.164 0 00-.894-.293 1.17 1.17 0 00-.749.371 1.144 1.144 0 000 1.547c.194.212.462.345.75.372zm-2.314 5.805c0 1.52-2.326 1.52-2.326-.01 0-1.531 2.326-1.531 2.326 0v.01z"/></g></symbol><symbol id="work-time-tablet"><g fill="none"><path fill="#68B738" d="M0 0h80v80H0z"/><path fill="#fff" d="M32.53 24c-1.06 0-1.06 1.593 0 1.593h6.636v1.614C32.372 27.642 27 33.47 27 40.585c0 4.035 1.741 7.676 4.49 10.13.478.424.542 1.178.107 1.645l-1.53 1.56c-.742.69.362 1.763 1.03 1.01l1.996-2.05c.35-.34.87-.425 1.306-.212a12.609 12.609 0 0011.051.063 1.133 1.133 0 011.295.213l1.932 1.985c.68.637 1.656-.318 1.04-1.008l-1.443-1.487c-.446-.456-.382-1.21.106-1.645a13.538 13.538 0 004.586-10.215c0-7.114-5.403-12.953-12.208-13.367v-1.614h6.635c1.061 0 1.061-1.593 0-1.593H32.53zm-4.097 16.574c0-6.572 5.17-11.892 11.55-11.892 6.37 0 11.54 5.32 11.54 11.892 0 6.583-5.17 11.913-11.54 11.913-6.37 0-11.55-5.33-11.55-11.913zm10.743-8.143c0-1.105 1.656-1.105 1.656 0v8.685a.85.85 0 01-.849.85.807.807 0 01-.807-.797V32.43zm-4.968 2.633a1.157 1.157 0 000-2.315 1.157 1.157 0 000 2.304v.01zm11.54 0a1.157 1.157 0 000-2.315 1.157 1.157 0 000 2.304v.01zM35.364 47.73c0 1.54-2.314 1.54-2.314 0s2.314-1.54 2.314 0zm4.618 3.461a1.157 1.157 0 10.221-2.303 1.157 1.157 0 00-.221 2.303zm-8.078-10.448a1.157 1.157 0 11-2.304.221 1.157 1.157 0 012.303-.22zM49.207 41.9a1.157 1.157 0 10.221-2.303 1.157 1.157 0 00-.22 2.303zm-2.303 5.84c0 1.53-2.315 1.53-2.315-.01s2.314-1.54 2.314 0v.01z"/></g></symbol></svg>