<svg xmlns="http://www.w3.org/2000/svg" width="60" height="60" fill="none"><path fill="#68B738" d="M0 0h60v60H0z"/><path fill="#fff" fill-rule="evenodd" d="M36.117 15.076a1 1 0 011.09.217c.909.908 2.097 2.878 3.059 5.918C41.237 24.28 42 28.508 42 34a1 1 0 01-1 1h-3.5v9a1 1 0 11-2 0V16a1 1 0 01.617-.924zM37.5 33h2.491c-.086-4.816-.786-8.512-1.632-11.186-.278-.88-.57-1.642-.859-2.295V33zm-14-18a1 1 0 011 1v28a1 1 0 11-2 0V16a1 1 0 011-1z" clip-rule="evenodd"/><path fill="#fff" fill-rule="evenodd" d="M19 15a1 1 0 011 1v5.5c0 .557.192 1.315.7 1.917.48.566 1.315 1.083 2.8 1.083a1 1 0 110 2c-2.015 0-3.43-.733-4.326-1.792A5.068 5.068 0 0118 21.5V16a1 1 0 011-1z" clip-rule="evenodd"/><path fill="#fff" fill-rule="evenodd" d="M28 15a1 1 0 00-1 1v5.5a3.07 3.07 0 01-.7 1.917c-.48.566-1.315 1.083-2.8 1.083a1 1 0 000 2c2.014 0 3.43-.733 4.326-1.792A5.068 5.068 0 0029 21.5V16a1 1 0 00-1-1z" clip-rule="evenodd"/></svg>