<svg xmlns="http://www.w3.org/2000/svg" width="80" height="80" fill="none"><path fill="#68B738" d="M0 0h80v80H0z"/><path fill="#fff" d="M32.53 24c-1.06 0-1.06 1.593 0 1.593h6.636v1.614C32.372 27.642 27 33.47 27 40.585c0 4.035 1.741 7.676 4.49 10.13.478.424.542 1.178.107 1.645l-1.53 1.56c-.742.69.362 1.763 1.03 1.01l1.996-2.05c.35-.34.87-.425 1.306-.212a12.609 12.609 0 0011.051.063 1.133 1.133 0 011.295.213l1.932 1.985c.68.637 1.656-.318 1.04-1.008l-1.443-1.487c-.446-.456-.382-1.21.106-1.645a13.538 13.538 0 004.586-10.215c0-7.114-5.403-12.953-12.208-13.367v-1.614h6.635c1.061 0 1.061-1.593 0-1.593H32.53zm-4.097 16.574c0-6.572 5.17-11.892 11.55-11.892 6.37 0 11.54 5.32 11.54 11.892 0 6.583-5.17 11.913-11.54 11.913-6.37 0-11.55-5.33-11.55-11.913zm10.743-8.143c0-1.105 1.656-1.105 1.656 0v8.685a.85.85 0 01-.849.85.807.807 0 01-.807-.797V32.43zm-4.968 2.633a1.157 1.157 0 000-2.315 1.157 1.157 0 000 2.304v.01zm11.54 0a1.157 1.157 0 000-2.315 1.157 1.157 0 000 2.304v.01zM35.364 47.73c0 1.54-2.314 1.54-2.314 0s2.314-1.54 2.314 0zm4.618 3.461a1.157 1.157 0 10.221-2.303 1.157 1.157 0 00-.221 2.303zm-8.078-10.448a1.157 1.157 0 11-2.304.221 1.157 1.157 0 012.303-.22zM49.207 41.9a1.157 1.157 0 10.221-2.303 1.157 1.157 0 00-.22 2.303zm-2.303 5.84c0 1.53-2.315 1.53-2.315-.01s2.314-1.54 2.314 0v.01z"/></svg>