<svg xmlns="http://www.w3.org/2000/svg" width="80" height="80" fill="none"><path fill="#68B738" d="M0 0h80v80H0z"/><path fill="#fff" d="M37.86 26c-1.628 0-2.895 1.368-2.895 3.1s1.267 3.1 2.896 3.1 2.896-1.368 2.896-3.1S39.49 26 37.861 26zm0 1.185c.996 0 1.72.848 1.72 1.915 0 1.003-.787 1.915-1.72 1.915-.995 0-1.719-.848-1.719-1.915 0-1.003.779-1.915 1.72-1.915zM27 50.89c0 1.185.407 2.188 1.358 3.009.995.857 2.172.784 2.172.784h19.006c.779 0 1.81-.383 2.625-1.459.842-1.003.787-2.37.787-2.37V33.53c0-.438-.108-.602-.742-.602-.633 0-.688.274-.688.593v17.322c-.018.301-.072 1.094-.742 1.733-.733.629-1.448.547-1.448.547s-18.101 0-19.006-.028c-.344-.063-.905-.191-1.448-.911-.507-.73-.408-1.642-.408-1.642v-17.32c0-.465-.235-.638-.724-.638s-.742.173-.742.583V50.89zm16.291-16.411c-1.086.237-2.172.383-4.253 2.37-2.082 2.006-3.62 1.915-5.16 1.824-1.538-.091-3.167-1.55-3.439-1.915-.335-.355-.905-.118-1.086.119-.154.237-.154.647.109 1.003 1.267 1.185 2.444 2.097 4.706 2.279 2.263.219 4.435-.811 5.883-2.28 1.448-1.458 2.172-1.731 3.258-1.914 2.625-.42 4.164.62 5.069 1.276.995 1.095 1.267.785 1.538.475.544-.72-.226-1.277-1.086-1.915-1.81-1.185-3.53-1.641-5.52-1.276l-.019-.046zm-9.05 7.203c-1.177 0-2.082 1.002-2.082 2.279 0 1.276.905 2.28 2.082 2.28 1.176 0 2.081-1.004 2.081-2.28 0-1.276-.905-2.28-2.081-2.28zm11.766.784c-1.54 0-2.806 1.367-2.806 3.008 0 1.642 1.267 3.009 2.806 3.009 1.538 0 2.805-1.367 2.805-3.009 0-1.64-1.267-3.008-2.805-3.008zm0 1.458c.796 0 1.448.703 1.448 1.55 0 .867-.652 1.55-1.448 1.55-.797 0-1.449-.702-1.449-1.55 0-.866.652-1.55 1.449-1.55z"/></svg>