<svg xmlns="http://www.w3.org/2000/svg" width="60" height="60" fill="none"><path fill="#68B738" d="M0 0h60v60H0z"/><path fill="#fff" d="M23.12 15c-1.066 0-1.066 1.583 0 1.583h6.668v1.604c-6.827.433-12.225 6.227-12.225 13.298 0 4.01 1.75 7.63 4.512 10.069.48.422.544 1.171.107 1.636l-1.536 1.551c-.747.686.362 1.752 1.034 1.003l2.006-2.037a1.164 1.164 0 011.312-.211 12.785 12.785 0 0011.105.063c.427-.211.96-.127 1.301.211l1.942 1.974c.683.633 1.664-.317 1.046-1.003l-1.451-1.477c-.448-.454-.384-1.204.106-1.636a13.467 13.467 0 003.415-4.583 13.335 13.335 0 001.194-5.57c0-7.071-5.43-12.876-12.268-13.288v-1.604h6.667c1.067 0 1.067-1.583 0-1.583H23.121zm-4.117 16.475c0-6.533 5.195-11.82 11.606-11.82 6.4 0 11.596 5.287 11.596 11.82 0 6.543-5.195 11.841-11.596 11.841-6.4 0-11.606-5.298-11.606-11.841zm10.796-8.095c0-1.098 1.664-1.098 1.664 0v8.633a.84.84 0 01-.25.597.858.858 0 01-.604.247.816.816 0 01-.57-.23.798.798 0 01-.24-.561V23.38zm-4.993 2.617c.308 0 .604-.12.822-.337a1.144 1.144 0 000-1.627 1.17 1.17 0 00-.822-.337c-.288.028-.555.16-.75.372a1.143 1.143 0 000 1.547c.195.212.462.344.75.372v.01zm11.596 0c.308 0 .604-.12.822-.337a1.144 1.144 0 000-1.627 1.17 1.17 0 00-.822-.337c-.288.028-.555.16-.75.372a1.144 1.144 0 000 1.547c.195.212.462.344.75.372v.01zM25.969 38.588c0 1.53-2.326 1.53-2.326 0s2.326-1.53 2.326 0zm4.64 3.44a1.176 1.176 0 00.893-.293 1.153 1.153 0 00.381-.851 1.14 1.14 0 00-.38-.852 1.167 1.167 0 00-.894-.293 1.17 1.17 0 00-.75.371 1.143 1.143 0 000 1.547c.195.212.462.344.75.372zm-8.118-10.384a1.139 1.139 0 01-.297.883 1.163 1.163 0 01-.86.377 1.173 1.173 0 01-.86-.377 1.147 1.147 0 01-.298-.883c.028-.285.162-.55.376-.742a1.17 1.17 0 011.564 0c.214.193.348.457.375.742zm17.388 1.15a1.173 1.173 0 00.894-.294 1.152 1.152 0 00.38-.851 1.14 1.14 0 00-.38-.852 1.164 1.164 0 00-.894-.293 1.17 1.17 0 00-.749.371 1.144 1.144 0 000 1.547c.194.212.462.345.75.372zm-2.314 5.805c0 1.52-2.326 1.52-2.326-.01 0-1.531 2.326-1.531 2.326 0v.01z"/></svg>