<svg xmlns="http://www.w3.org/2000/svg" width="168" height="37" fill="none" viewBox="0 0 168 37"><path fill="#444" d="M15.752 13.036V24.5H14.2v-5.216H8.016V24.5H6.464V13.036h1.552v5.112H14.2v-5.112h1.552Zm10.683 1.304h-3.712V24.5h-1.544V14.34h-3.72v-1.304h8.976v1.304Zm13.629-1.304V24.5h-1.36v-8.424c0-.112.002-.232.008-.36l.032-.392-3.936 7.168c-.123.24-.31.36-.56.36h-.224c-.25 0-.438-.12-.56-.36l-4.016-7.2c.032.283.048.544.048.784V24.5h-1.36V13.036h1.144c.139 0 .245.013.32.04.074.027.146.101.216.224l3.96 7.056c.064.128.125.261.184.4.064.139.123.28.176.424.053-.144.11-.285.168-.424.058-.144.122-.28.192-.408l3.888-7.048c.064-.123.133-.197.208-.224.08-.027.19-.04.328-.04h1.144Zm9.435 10.16V24.5h-6.504V13.036h1.544v10.16h4.96Zm10.881-2.952-1.8-4.664a9.569 9.569 0 0 1-.336-1.072 8.706 8.706 0 0 1-.344 1.08l-1.8 4.656h4.28Zm3.232 4.256h-1.2a.517.517 0 0 1-.336-.104.64.64 0 0 1-.192-.264l-1.072-2.768h-5.144l-1.072 2.768a.562.562 0 0 1-.184.256.51.51 0 0 1-.336.112h-1.2l4.584-11.464h1.568L63.612 24.5Zm6.593-6.664a.635.635 0 0 1-.127.136.287.287 0 0 1-.177.048.487.487 0 0 1-.263-.096 3.66 3.66 0 0 0-.36-.224 2.548 2.548 0 0 0-.52-.216 2.347 2.347 0 0 0-.752-.104c-.4 0-.752.072-1.056.216a2.03 2.03 0 0 0-.769.608c-.202.267-.357.59-.463.968a4.924 4.924 0 0 0-.153 1.272c0 .49.056.928.169 1.312.112.379.269.699.472.96.207.256.456.453.743.592.294.133.622.2.984.2.347 0 .632-.04.856-.12.224-.085.409-.179.552-.28a4.76 4.76 0 0 0 .369-.272.466.466 0 0 1 .296-.128c.117 0 .207.045.272.136l.4.52a2.838 2.838 0 0 1-.6.56 3.812 3.812 0 0 1-.728.392 4.017 4.017 0 0 1-.808.224c-.283.048-.571.072-.865.072-.506 0-.978-.093-1.416-.28a3.253 3.253 0 0 1-1.127-.808 3.846 3.846 0 0 1-.752-1.312c-.182-.517-.273-1.107-.273-1.768 0-.603.083-1.16.249-1.672.17-.512.415-.952.736-1.32a3.37 3.37 0 0 1 1.192-.872c.474-.208 1.018-.312 1.632-.312.57 0 1.072.093 1.503.28.438.181.825.44 1.16.776l-.376.512Zm6.393 3.016c-.656.021-1.216.075-1.68.16-.459.08-.835.187-1.128.32-.288.133-.499.29-.632.472a1.03 1.03 0 0 0-.192.608c0 .213.035.397.104.552.07.155.163.283.28.384.123.096.264.168.424.216.165.043.341.064.528.064.25 0 .48-.024.688-.072.208-.053.403-.128.584-.224.187-.096.363-.21.528-.344.17-.133.336-.285.496-.456v-1.68Zm-4.6-3.312c.448-.432.93-.755 1.448-.968a4.472 4.472 0 0 1 1.72-.32c.454 0 .856.075 1.208.224.352.15.648.357.888.624s.421.59.544.968c.123.379.184.795.184 1.248V24.5h-.632a.653.653 0 0 1-.32-.064c-.075-.048-.133-.139-.176-.272l-.16-.768a8.67 8.67 0 0 1-.624.528c-.203.15-.416.277-.64.384a3.446 3.446 0 0 1-.72.232 3.69 3.69 0 0 1-.84.088c-.314 0-.61-.043-.888-.128a2.147 2.147 0 0 1-.728-.4 1.938 1.938 0 0 1-.488-.664 2.41 2.41 0 0 1-.176-.96c0-.32.088-.627.264-.92.176-.299.462-.563.856-.792.395-.23.91-.416 1.544-.56.635-.15 1.413-.235 2.336-.256v-.632c0-.63-.136-1.104-.408-1.424-.272-.325-.67-.488-1.192-.488-.352 0-.648.045-.888.136-.234.085-.44.184-.616.296-.17.107-.32.205-.448.296a.641.641 0 0 1-.368.128.425.425 0 0 1-.248-.072.755.755 0 0 1-.176-.192l-.256-.456Zm13.441.784c-.266-.357-.554-.605-.864-.744a2.435 2.435 0 0 0-1.04-.216c-.752 0-1.33.27-1.736.808-.405.539-.608 1.307-.608 2.304 0 .528.046.981.136 1.36.09.373.224.683.4.928.176.24.392.416.648.528.256.112.547.168.872.168.47 0 .878-.107 1.224-.32.352-.213.675-.515.968-.904v-3.912Zm1.424-5.608V24.5h-.848c-.202 0-.33-.099-.384-.296l-.128-.984a4.414 4.414 0 0 1-1.184 1.008c-.442.256-.954.384-1.536.384-.464 0-.885-.088-1.264-.264a2.657 2.657 0 0 1-.968-.792c-.266-.347-.472-.779-.616-1.296-.144-.517-.216-1.112-.216-1.784 0-.597.08-1.152.24-1.664.16-.517.39-.965.688-1.344a3.161 3.161 0 0 1 1.096-.888 3.245 3.245 0 0 1 1.472-.328c.496 0 .92.085 1.272.256.358.165.675.397.952.696v-4.488h1.424Zm7.673 6.848c0-.33-.048-.632-.144-.904a1.917 1.917 0 0 0-.408-.712 1.722 1.722 0 0 0-.648-.464 2.155 2.155 0 0 0-.872-.168c-.682 0-1.224.2-1.624.6-.394.395-.64.944-.736 1.648h4.432Zm1.152 3.8c-.176.213-.386.4-.632.56a4.03 4.03 0 0 1-.792.384 4.676 4.676 0 0 1-.864.224c-.298.053-.594.08-.888.08-.56 0-1.077-.093-1.552-.28a3.513 3.513 0 0 1-1.224-.832 3.89 3.89 0 0 1-.8-1.36c-.192-.539-.288-1.157-.288-1.856 0-.565.086-1.093.256-1.584a3.74 3.74 0 0 1 .752-1.272 3.374 3.374 0 0 1 1.192-.848 3.87 3.87 0 0 1 1.584-.312c.486 0 .934.083 1.344.248.416.16.774.395 1.072.704.304.304.542.683.712 1.136.171.448.256.96.256 1.536 0 .224-.024.373-.072.448-.048.075-.138.112-.272.112h-5.416c.016.512.086.957.208 1.336.128.379.304.696.528.952.224.25.491.44.8.568a2.8 2.8 0 0 0 1.04.184c.358 0 .664-.04.92-.12a4.608 4.608 0 0 0 1.136-.536c.128-.085.238-.128.328-.128.118 0 .208.045.272.136l.4.52Zm1.877 1.136v-8.104h.856c.203 0 .328.099.376.296l.105.832c.298-.368.634-.67 1.007-.904a2.385 2.385 0 0 1 1.297-.352c.544 0 .984.152 1.32.456.341.304.586.715.736 1.232a2.7 2.7 0 0 1 .448-.76 2.624 2.624 0 0 1 1.352-.832c.261-.064.525-.096.792-.096.426 0 .805.07 1.136.208.336.133.618.33.848.592.234.261.413.584.536.968.122.379.184.813.184 1.304v5.16h-1.432v-5.16c0-.635-.139-1.115-.416-1.44-.278-.33-.678-.496-1.2-.496a1.79 1.79 0 0 0-.672.128c-.208.08-.392.2-.552.36-.16.16-.288.363-.384.608-.091.24-.136.52-.136.84v5.16h-1.432v-5.16c0-.65-.131-1.136-.392-1.456-.262-.32-.643-.48-1.144-.48-.352 0-.678.096-.977.288a3.174 3.174 0 0 0-.823.768v6.04h-1.433Zm19.946-8.104-4.52 10.496a.727.727 0 0 1-.184.256c-.07.064-.179.096-.328.096h-1.056l1.48-3.216-3.344-7.632h1.232a.41.41 0 0 1 .288.096.454.454 0 0 1 .152.2l2.168 5.104c.085.224.157.459.216.704.074-.25.154-.488.24-.712l2.104-5.096a.438.438 0 0 1 .16-.208.436.436 0 0 1 .264-.088h1.128Z"/><g clip-path="url(#a)"><path fill="#666" d="M154.643 1.516 154.5 1.5 141 2.907v24.606l13.5 7.987 13.5-7.987V2.907l-13.357-1.391Zm11.591 25L154.5 33.456l-11.734-6.942V16.43l11.685 6.916.019 1.253-8.016-4.743-.011 1.225 8.046 4.809.02 1.286-8.045-4.758-.01 1.226 8.046 4.808 8.124-4.833V18.41l3.619-2.15-.009 10.256Zm0-11.564-3.219 1.88-1.482.875-7.066-4.187-.011 1.225 6.04 3.573-.053.031-.13.076-.859.492-4.987-2.948-.011 1.225 3.936 2.328-.933.61-.021.012-2.971-1.742-.011 1.225 1.947 1.135-1.987 1.186-11.619-6.872 11.638-6.958 11.799 6.834Zm0-1.225L154.44 6.81l-11.674 6.909V4.49L154.5 3.264l11.734 1.226v9.237Z"/></g><defs><clipPath id="a"><path fill="#fff" d="M141 1.5h27v34h-27z"/></clipPath></defs></svg>